<svg version="1.1" xmlns="http://www.w3.org/2000/svg" xmlns:xlink="http://www.w3.org/1999/xlink" width="444" height="275"><defs><clipPath id="dcLZPOUNinZS"><path fill="none" stroke="none" d=" M 0 0 L 444 0 L 444 275 L 0 275 L 0 0 Z"/></clipPath></defs><g transform="scale(1,1)" clip-path="url(#dcLZPOUNinZS)"><g><rect fill="rgb(255,255,255)" stroke="none" x="0" y="0" width="444" height="275" fill-opacity="1"/><path fill="rgb(21,101,192)" stroke="none" paint-order="stroke fill markers" fill-rule="evenodd" d=" M 65.18620093720946 212.37156866760927 L 241.16090572919745 212.37156866760927 L 241.16090572919745 36.39686387562105 L 65.18620093720949 36.39686387562102 Z" fill-opacity="0.2"/><path fill="none" stroke="rgb(21,101,192)" paint-order="fill stroke markers" d=" M 65.18620093720946 212.37156866760927 L 241.16090572919745 212.37156866760927 L 241.16090572919745 36.39686387562105 L 65.18620093720949 36.39686387562102 Z" stroke-opacity="0.8" stroke-linecap="round" stroke-linejoin="round" stroke-miterlimit="10" stroke-width="2.5"/><path fill="rgb(46,125,50)" stroke="none" paint-order="stroke fill markers" fill-rule="evenodd" d=" M 285.15458192719444 212.37156866760927 L 373.1419343231885 212.37156866760927 L 373.1419343231885 36.39686387562102 L 285.15458192719444 36.39686387562102 Z" fill-opacity="0.2"/><path fill="none" stroke="rgb(21,101,192)" paint-order="fill stroke markers" d=" M 65.18620093720946 212.37156866760927 L 241.16090572919745 212.37156866760927" stroke-opacity="0.8" stroke-linecap="round" stroke-linejoin="round" stroke-miterlimit="10" stroke-width="2.5"/><path fill="none" stroke="rgb(21,101,192)" paint-order="fill stroke markers" d=" M 241.16090572919745 212.37156866760927 L 241.16090572919745 36.39686387562105" stroke-opacity="0.8" stroke-linecap="round" stroke-linejoin="round" stroke-miterlimit="10" stroke-width="2.5"/><path fill="none" stroke="rgb(21,101,192)" paint-order="fill stroke markers" d=" M 241.16090572919745 36.39686387562105 L 65.18620093720949 36.39686387562102" stroke-opacity="0.8" stroke-linecap="round" stroke-linejoin="round" stroke-miterlimit="10" stroke-width="2.5"/><path fill="none" stroke="rgb(21,101,192)" paint-order="fill stroke markers" d=" M 65.18620093720949 36.39686387562102 L 65.18620093720946 212.37156866760927" stroke-opacity="0.8" stroke-linecap="round" stroke-linejoin="round" stroke-miterlimit="10" stroke-width="2.5"/><path fill="none" stroke="rgb(46,125,50)" paint-order="fill stroke markers" d=" M 285.15458192719444 212.37156866760927 L 373.1419343231885 212.37156866760927" stroke-opacity="0.8" stroke-linecap="round" stroke-linejoin="round" stroke-miterlimit="10" stroke-width="2.5"/><path fill="none" stroke="rgb(46,125,50)" paint-order="fill stroke markers" d=" M 373.1419343231885 212.37156866760927 L 373.1419343231885 36.39686387562102" stroke-opacity="0.8" stroke-linecap="round" stroke-linejoin="round" stroke-miterlimit="10" stroke-width="2.5"/><path fill="none" stroke="rgb(46,125,50)" paint-order="fill stroke markers" d=" M 373.1419343231885 36.39686387562102 L 285.15458192719444 36.39686387562102" stroke-opacity="0.8" stroke-linecap="round" stroke-linejoin="round" stroke-miterlimit="10" stroke-width="2.5"/><path fill="none" stroke="rgb(46,125,50)" paint-order="fill stroke markers" d=" M 285.15458192719444 36.39686387562102 L 285.15458192719444 212.37156866760927" stroke-opacity="0.8" stroke-linecap="round" stroke-linejoin="round" stroke-miterlimit="10" stroke-width="2.5"/><path fill="rgb(46,125,50)" stroke="none" paint-order="stroke fill markers" d=" M 66.18620093720946 212.37156866760927 C 66.18620093720946 212.92385341744006 65.73848568704025 213.37156866760927 65.18620093720946 213.37156866760927 C 64.63391618737867 213.37156866760927 64.18620093720946 212.92385341744006 64.18620093720946 212.37156866760927 C 64.18620093720946 211.81928391777848 64.63391618737867 211.37156866760927 65.18620093720946 211.37156866760927 C 65.73848568704025 211.37156866760927 66.18620093720946 211.81928391777848 66.18620093720946 212.37156866760927 Z" fill-opacity="1"/><path fill="none" stroke="rgb(0,0,0)" paint-order="fill stroke markers" d=" M 66.18620093720946 212.37156866760927 C 66.18620093720946 212.92385341744006 65.73848568704025 213.37156866760927 65.18620093720946 213.37156866760927 C 64.63391618737867 213.37156866760927 64.18620093720946 212.92385341744006 64.18620093720946 212.37156866760927 C 64.18620093720946 211.81928391777848 64.63391618737867 211.37156866760927 65.18620093720946 211.37156866760927 C 65.73848568704025 211.37156866760927 66.18620093720946 211.81928391777848 66.18620093720946 212.37156866760927 Z" stroke-opacity="1" stroke-linecap="round" stroke-linejoin="round" stroke-miterlimit="10"/><path fill="rgb(21,101,192)" stroke="none" paint-order="stroke fill markers" d=" M 242.16090572919745 212.37156866760927 C 242.16090572919745 212.92385341744006 241.71319047902824 213.37156866760927 241.16090572919745 213.37156866760927 C 240.60862097936666 213.37156866760927 240.16090572919745 212.92385341744006 240.16090572919745 212.37156866760927 C 240.16090572919745 211.81928391777848 240.60862097936666 211.37156866760927 241.16090572919745 211.37156866760927 C 241.71319047902824 211.37156866760927 242.16090572919745 211.81928391777848 242.16090572919745 212.37156866760927 Z" fill-opacity="1"/><path fill="none" stroke="rgb(0,0,0)" paint-order="fill stroke markers" d=" M 242.16090572919745 212.37156866760927 C 242.16090572919745 212.92385341744006 241.71319047902824 213.37156866760927 241.16090572919745 213.37156866760927 C 240.60862097936666 213.37156866760927 240.16090572919745 212.92385341744006 240.16090572919745 212.37156866760927 C 240.16090572919745 211.81928391777848 240.60862097936666 211.37156866760927 241.16090572919745 211.37156866760927 C 241.71319047902824 211.37156866760927 242.16090572919745 211.81928391777848 242.16090572919745 212.37156866760927 Z" stroke-opacity="1" stroke-linecap="round" stroke-linejoin="round" stroke-miterlimit="10"/><path fill="rgb(46,125,50)" stroke="none" paint-order="stroke fill markers" d=" M 242.16090572919745 36.39686387562105 C 242.16090572919745 36.94914862545184 241.71319047902824 37.39686387562105 241.16090572919745 37.39686387562105 C 240.60862097936666 37.39686387562105 240.16090572919745 36.94914862545184 240.16090572919745 36.39686387562105 C 240.16090572919745 35.844579125790254 240.60862097936666 35.39686387562105 241.16090572919745 35.39686387562105 C 241.71319047902824 35.39686387562105 242.16090572919745 35.844579125790254 242.16090572919745 36.39686387562105 Z" fill-opacity="1"/><path fill="none" stroke="rgb(0,0,0)" paint-order="fill stroke markers" d=" M 242.16090572919745 36.39686387562105 C 242.16090572919745 36.94914862545184 241.71319047902824 37.39686387562105 241.16090572919745 37.39686387562105 C 240.60862097936666 37.39686387562105 240.16090572919745 36.94914862545184 240.16090572919745 36.39686387562105 C 240.16090572919745 35.844579125790254 240.60862097936666 35.39686387562105 241.16090572919745 35.39686387562105 C 241.71319047902824 35.39686387562105 242.16090572919745 35.844579125790254 242.16090572919745 36.39686387562105 Z" stroke-opacity="1" stroke-linecap="round" stroke-linejoin="round" stroke-miterlimit="10"/><path fill="rgb(46,125,50)" stroke="none" paint-order="stroke fill markers" d=" M 66.18620093720949 36.39686387562102 C 66.18620093720949 36.94914862545181 65.73848568704028 37.39686387562102 65.18620093720949 37.39686387562102 C 64.6339161873787 37.39686387562102 64.18620093720949 36.94914862545181 64.18620093720949 36.39686387562102 C 64.18620093720949 35.844579125790226 64.6339161873787 35.39686387562102 65.18620093720949 35.39686387562102 C 65.73848568704028 35.39686387562102 66.18620093720949 35.844579125790226 66.18620093720949 36.39686387562102 Z" fill-opacity="1"/><path fill="none" stroke="rgb(0,0,0)" paint-order="fill stroke markers" d=" M 66.18620093720949 36.39686387562102 C 66.18620093720949 36.94914862545181 65.73848568704028 37.39686387562102 65.18620093720949 37.39686387562102 C 64.6339161873787 37.39686387562102 64.18620093720949 36.94914862545181 64.18620093720949 36.39686387562102 C 64.18620093720949 35.844579125790226 64.6339161873787 35.39686387562102 65.18620093720949 35.39686387562102 C 65.73848568704028 35.39686387562102 66.18620093720949 35.844579125790226 66.18620093720949 36.39686387562102 Z" stroke-opacity="1" stroke-linecap="round" stroke-linejoin="round" stroke-miterlimit="10"/><path fill="rgb(21,101,192)" stroke="none" paint-order="stroke fill markers" d=" M 374.1419343231885 36.39686387562102 C 374.1419343231885 36.94914862545181 373.69421907301927 37.39686387562102 373.1419343231885 37.39686387562102 C 372.5896495733577 37.39686387562102 372.1419343231885 36.94914862545181 372.1419343231885 36.39686387562102 C 372.1419343231885 35.844579125790226 372.5896495733577 35.39686387562102 373.1419343231885 35.39686387562102 C 373.69421907301927 35.39686387562102 374.1419343231885 35.844579125790226 374.1419343231885 36.39686387562102 Z" fill-opacity="1"/><path fill="none" stroke="rgb(0,0,0)" paint-order="fill stroke markers" d=" M 374.1419343231885 36.39686387562102 C 374.1419343231885 36.94914862545181 373.69421907301927 37.39686387562102 373.1419343231885 37.39686387562102 C 372.5896495733577 37.39686387562102 372.1419343231885 36.94914862545181 372.1419343231885 36.39686387562102 C 372.1419343231885 35.844579125790226 372.5896495733577 35.39686387562102 373.1419343231885 35.39686387562102 C 373.69421907301927 35.39686387562102 374.1419343231885 35.844579125790226 374.1419343231885 36.39686387562102 Z" stroke-opacity="1" stroke-linecap="round" stroke-linejoin="round" stroke-miterlimit="10"/><path fill="rgb(21,101,192)" stroke="none" paint-order="stroke fill markers" d=" M 286.15458192719444 212.37156866760927 C 286.15458192719444 212.92385341744006 285.70686667702523 213.37156866760927 285.15458192719444 213.37156866760927 C 284.60229717736365 213.37156866760927 284.15458192719444 212.92385341744006 284.15458192719444 212.37156866760927 C 284.15458192719444 211.81928391777848 284.60229717736365 211.37156866760927 285.15458192719444 211.37156866760927 C 285.70686667702523 211.37156866760927 286.15458192719444 211.81928391777848 286.15458192719444 212.37156866760927 Z" fill-opacity="1"/><path fill="none" stroke="rgb(0,0,0)" paint-order="fill stroke markers" d=" M 286.15458192719444 212.37156866760927 C 286.15458192719444 212.92385341744006 285.70686667702523 213.37156866760927 285.15458192719444 213.37156866760927 C 284.60229717736365 213.37156866760927 284.15458192719444 212.92385341744006 284.15458192719444 212.37156866760927 C 284.15458192719444 211.81928391777848 284.60229717736365 211.37156866760927 285.15458192719444 211.37156866760927 C 285.70686667702523 211.37156866760927 286.15458192719444 211.81928391777848 286.15458192719444 212.37156866760927 Z" stroke-opacity="1" stroke-linecap="round" stroke-linejoin="round" stroke-miterlimit="10"/><path fill="rgb(21,101,192)" stroke="none" paint-order="stroke fill markers" d=" M 286.15458192719444 36.39686387562102 C 286.15458192719444 36.94914862545181 285.70686667702523 37.39686387562102 285.15458192719444 37.39686387562102 C 284.60229717736365 37.39686387562102 284.15458192719444 36.94914862545181 284.15458192719444 36.39686387562102 C 284.15458192719444 35.844579125790226 284.60229717736365 35.39686387562102 285.15458192719444 35.39686387562102 C 285.70686667702523 35.39686387562102 286.15458192719444 35.844579125790226 286.15458192719444 36.39686387562102 Z" fill-opacity="1"/><path fill="none" stroke="rgb(0,0,0)" paint-order="fill stroke markers" d=" M 286.15458192719444 36.39686387562102 C 286.15458192719444 36.94914862545181 285.70686667702523 37.39686387562102 285.15458192719444 37.39686387562102 C 284.60229717736365 37.39686387562102 284.15458192719444 36.94914862545181 284.15458192719444 36.39686387562102 C 284.15458192719444 35.844579125790226 284.60229717736365 35.39686387562102 285.15458192719444 35.39686387562102 C 285.70686667702523 35.39686387562102 286.15458192719444 35.844579125790226 286.15458192719444 36.39686387562102 Z" stroke-opacity="1" stroke-linecap="round" stroke-linejoin="round" stroke-miterlimit="10"/><path fill="rgb(21,101,192)" stroke="none" paint-order="stroke fill markers" d=" M 374.1419343231885 212.37156866760927 C 374.1419343231885 212.92385341744006 373.69421907301927 213.37156866760927 373.1419343231885 213.37156866760927 C 372.5896495733577 213.37156866760927 372.1419343231885 212.92385341744006 372.1419343231885 212.37156866760927 C 372.1419343231885 211.81928391777848 372.5896495733577 211.37156866760927 373.1419343231885 211.37156866760927 C 373.69421907301927 211.37156866760927 374.1419343231885 211.81928391777848 374.1419343231885 212.37156866760927 Z" fill-opacity="1"/><path fill="none" stroke="rgb(0,0,0)" paint-order="fill stroke markers" d=" M 374.1419343231885 212.37156866760927 C 374.1419343231885 212.92385341744006 373.69421907301927 213.37156866760927 373.1419343231885 213.37156866760927 C 372.5896495733577 213.37156866760927 372.1419343231885 212.92385341744006 372.1419343231885 212.37156866760927 C 372.1419343231885 211.81928391777848 372.5896495733577 211.37156866760927 373.1419343231885 211.37156866760927 C 373.69421907301927 211.37156866760927 374.1419343231885 211.81928391777848 374.1419343231885 212.37156866760927 Z" stroke-opacity="1" stroke-linecap="round" stroke-linejoin="round" stroke-miterlimit="10"/><g transform="scale(25,25)"><g transform="translate(5.96,9.950999999999999)"><path fill="rgb(0,0,0)" stroke="none" paint-order="stroke fill markers" d=" M 0.10205078125 -0.02880859375 Q 0.11865234375 -0.01513671875 0.14501953125 -0.01513671875 Q 0.17529296875 -0.01513671875 0.19580078125 -0.045166015625 Q 0.21630859375 -0.0751953125 0.22509765625 -0.11083984375 L 0.27001953125 -0.2900390625 Q 0.28076171875 -0.33203125 0.28076171875 -0.35693359375 Q 0.28076171875 -0.38134765625 0.26953125 -0.398681640625 Q 0.25830078125 -0.416015625 0.23583984375 -0.416015625 Q 0.20654296875 -0.416015625 0.18115234375 -0.3955078125 Q 0.15576171875 -0.375 0.13916015625 -0.344482421875 Q 0.12255859375 -0.31396484375 0.115234375 -0.2841796875 Q 0.1123046875 -0.27783203125 0.10693359375 -0.27783203125 L 0.0888671875 -0.27783203125 Q 0.0810546875 -0.27783203125 0.0810546875 -0.287109375 L 0.0810546875 -0.2900390625 Q 0.09033203125 -0.326171875 0.11279296875 -0.361572265625 Q 0.13525390625 -0.39697265625 0.16748046875 -0.41943359375 Q 0.19970703125 -0.44189453125 0.23681640625 -0.44189453125 Q 0.26904296875 -0.44189453125 0.295166015625 -0.4248046875 Q 0.3212890625 -0.40771484375 0.333984375 -0.3779296875 Q 0.3505859375 -0.40576171875 0.375244140625 -0.423828125 Q 0.39990234375 -0.44189453125 0.42822265625 -0.44189453125 Q 0.4453125 -0.44189453125 0.46044921875 -0.43798828125 Q 0.4755859375 -0.43408203125 0.48828125 -0.42578125 Q 0.5009765625 -0.41748046875 0.509033203125 -0.405029296875 Q 0.51708984375 -0.392578125 0.51708984375 -0.375 Q 0.51708984375 -0.3515625 0.502197265625 -0.334716796875 Q 0.4873046875 -0.31787109375 0.4638671875 -0.31787109375 Q 0.44970703125 -0.31787109375 0.439453125 -0.3271484375 Q 0.42919921875 -0.33642578125 0.42919921875 -0.35107421875 Q 0.42919921875 -0.369140625 0.44091796875 -0.38330078125 Q 0.45263671875 -0.3974609375 0.46923828125 -0.40185546875 Q 0.45361328125 -0.416015625 0.42578125 -0.416015625 Q 0.396484375 -0.416015625 0.37548828125 -0.385498046875 Q 0.3544921875 -0.35498046875 0.34619140625 -0.31982421875 L 0.30078125 -0.14111328125 Q 0.29736328125 -0.12451171875 0.293701171875 -0.106201171875 Q 0.2900390625 -0.087890625 0.2900390625 -0.07421875 Q 0.2900390625 -0.05029296875 0.3017578125 -0.03271484375 Q 0.3134765625 -0.01513671875 0.3359375 -0.01513671875 Q 0.36572265625 -0.01513671875 0.390869140625 -0.03564453125 Q 0.416015625 -0.05615234375 0.432373046875 -0.086181640625 Q 0.44873046875 -0.1162109375 0.4560546875 -0.14697265625 Q 0.4580078125 -0.15283203125 0.4638671875 -0.15283203125 L 0.48193359375 -0.15283203125 Q 0.48583984375 -0.15283203125 0.488525390625 -0.150390625 Q 0.4912109375 -0.14794921875 0.4912109375 -0.14404296875 Q 0.4912109375 -0.14306640625 0.490234375 -0.14111328125 Q 0.48095703125 -0.10400390625 0.458984375 -0.06884765625 Q 0.43701171875 -0.03369140625 0.404052734375 -0.01123046875 Q 0.37109375 0.01123046875 0.333984375 0.01123046875 Q 0.3017578125 0.01123046875 0.276123046875 -0.006103515625 Q 0.25048828125 -0.0234375 0.23779296875 -0.05322265625 Q 0.22119140625 -0.025390625 0.197265625 -0.007080078125 Q 0.17333984375 0.01123046875 0.14404296875 0.01123046875 Q 0.10986328125 0.01123046875 0.08251953125 -0.006103515625 Q 0.05517578125 -0.0234375 0.05517578125 -0.05615234375 Q 0.05517578125 -0.0791015625 0.070068359375 -0.095947265625 Q 0.0849609375 -0.11279296875 0.10693359375 -0.11279296875 Q 0.12255859375 -0.11279296875 0.1328125 -0.103759765625 Q 0.14306640625 -0.0947265625 0.14306640625 -0.080078125 Q 0.14306640625 -0.0625 0.13134765625 -0.04833984375 Q 0.11962890625 -0.0341796875 0.10205078125 -0.02880859375 Z"/></g></g><g transform="scale(25,25)"><g transform="translate(1.56,5.271)"><path fill="rgb(0,0,0)" stroke="none" paint-order="stroke fill markers" d=" M 0.10205078125 -0.02880859375 Q 0.11865234375 -0.01513671875 0.14501953125 -0.01513671875 Q 0.17529296875 -0.01513671875 0.19580078125 -0.045166015625 Q 0.21630859375 -0.0751953125 0.22509765625 -0.11083984375 L 0.27001953125 -0.2900390625 Q 0.28076171875 -0.33203125 0.28076171875 -0.35693359375 Q 0.28076171875 -0.38134765625 0.26953125 -0.398681640625 Q 0.25830078125 -0.416015625 0.23583984375 -0.416015625 Q 0.20654296875 -0.416015625 0.18115234375 -0.3955078125 Q 0.15576171875 -0.375 0.13916015625 -0.344482421875 Q 0.12255859375 -0.31396484375 0.115234375 -0.2841796875 Q 0.1123046875 -0.27783203125 0.10693359375 -0.27783203125 L 0.0888671875 -0.27783203125 Q 0.0810546875 -0.27783203125 0.0810546875 -0.287109375 L 0.0810546875 -0.2900390625 Q 0.09033203125 -0.326171875 0.11279296875 -0.361572265625 Q 0.13525390625 -0.39697265625 0.16748046875 -0.41943359375 Q 0.19970703125 -0.44189453125 0.23681640625 -0.44189453125 Q 0.26904296875 -0.44189453125 0.295166015625 -0.4248046875 Q 0.3212890625 -0.40771484375 0.333984375 -0.3779296875 Q 0.3505859375 -0.40576171875 0.375244140625 -0.423828125 Q 0.39990234375 -0.44189453125 0.42822265625 -0.44189453125 Q 0.4453125 -0.44189453125 0.46044921875 -0.43798828125 Q 0.4755859375 -0.43408203125 0.48828125 -0.42578125 Q 0.5009765625 -0.41748046875 0.509033203125 -0.405029296875 Q 0.51708984375 -0.392578125 0.51708984375 -0.375 Q 0.51708984375 -0.3515625 0.502197265625 -0.334716796875 Q 0.4873046875 -0.31787109375 0.4638671875 -0.31787109375 Q 0.44970703125 -0.31787109375 0.439453125 -0.3271484375 Q 0.42919921875 -0.33642578125 0.42919921875 -0.35107421875 Q 0.42919921875 -0.369140625 0.44091796875 -0.38330078125 Q 0.45263671875 -0.3974609375 0.46923828125 -0.40185546875 Q 0.45361328125 -0.416015625 0.42578125 -0.416015625 Q 0.396484375 -0.416015625 0.37548828125 -0.385498046875 Q 0.3544921875 -0.35498046875 0.34619140625 -0.31982421875 L 0.30078125 -0.14111328125 Q 0.29736328125 -0.12451171875 0.293701171875 -0.106201171875 Q 0.2900390625 -0.087890625 0.2900390625 -0.07421875 Q 0.2900390625 -0.05029296875 0.3017578125 -0.03271484375 Q 0.3134765625 -0.01513671875 0.3359375 -0.01513671875 Q 0.36572265625 -0.01513671875 0.390869140625 -0.03564453125 Q 0.416015625 -0.05615234375 0.432373046875 -0.086181640625 Q 0.44873046875 -0.1162109375 0.4560546875 -0.14697265625 Q 0.4580078125 -0.15283203125 0.4638671875 -0.15283203125 L 0.48193359375 -0.15283203125 Q 0.48583984375 -0.15283203125 0.488525390625 -0.150390625 Q 0.4912109375 -0.14794921875 0.4912109375 -0.14404296875 Q 0.4912109375 -0.14306640625 0.490234375 -0.14111328125 Q 0.48095703125 -0.10400390625 0.458984375 -0.06884765625 Q 0.43701171875 -0.03369140625 0.404052734375 -0.01123046875 Q 0.37109375 0.01123046875 0.333984375 0.01123046875 Q 0.3017578125 0.01123046875 0.276123046875 -0.006103515625 Q 0.25048828125 -0.0234375 0.23779296875 -0.05322265625 Q 0.22119140625 -0.025390625 0.197265625 -0.007080078125 Q 0.17333984375 0.01123046875 0.14404296875 0.01123046875 Q 0.10986328125 0.01123046875 0.08251953125 -0.006103515625 Q 0.05517578125 -0.0234375 0.05517578125 -0.05615234375 Q 0.05517578125 -0.0791015625 0.070068359375 -0.095947265625 Q 0.0849609375 -0.11279296875 0.10693359375 -0.11279296875 Q 0.12255859375 -0.11279296875 0.1328125 -0.103759765625 Q 0.14306640625 -0.0947265625 0.14306640625 -0.080078125 Q 0.14306640625 -0.0625 0.13134765625 -0.04833984375 Q 0.11962890625 -0.0341796875 0.10205078125 -0.02880859375 Z"/></g></g><g transform="scale(25,25)"><g transform="translate(15.28,5.271)"><path fill="rgb(0,0,0)" stroke="none" paint-order="stroke fill markers" d=" M 0.10205078125 -0.02880859375 Q 0.11865234375 -0.01513671875 0.14501953125 -0.01513671875 Q 0.17529296875 -0.01513671875 0.19580078125 -0.045166015625 Q 0.21630859375 -0.0751953125 0.22509765625 -0.11083984375 L 0.27001953125 -0.2900390625 Q 0.28076171875 -0.33203125 0.28076171875 -0.35693359375 Q 0.28076171875 -0.38134765625 0.26953125 -0.398681640625 Q 0.25830078125 -0.416015625 0.23583984375 -0.416015625 Q 0.20654296875 -0.416015625 0.18115234375 -0.3955078125 Q 0.15576171875 -0.375 0.13916015625 -0.344482421875 Q 0.12255859375 -0.31396484375 0.115234375 -0.2841796875 Q 0.1123046875 -0.27783203125 0.10693359375 -0.27783203125 L 0.0888671875 -0.27783203125 Q 0.0810546875 -0.27783203125 0.0810546875 -0.287109375 L 0.0810546875 -0.2900390625 Q 0.09033203125 -0.326171875 0.11279296875 -0.361572265625 Q 0.13525390625 -0.39697265625 0.16748046875 -0.41943359375 Q 0.19970703125 -0.44189453125 0.23681640625 -0.44189453125 Q 0.26904296875 -0.44189453125 0.295166015625 -0.4248046875 Q 0.3212890625 -0.40771484375 0.333984375 -0.3779296875 Q 0.3505859375 -0.40576171875 0.375244140625 -0.423828125 Q 0.39990234375 -0.44189453125 0.42822265625 -0.44189453125 Q 0.4453125 -0.44189453125 0.46044921875 -0.43798828125 Q 0.4755859375 -0.43408203125 0.48828125 -0.42578125 Q 0.5009765625 -0.41748046875 0.509033203125 -0.405029296875 Q 0.51708984375 -0.392578125 0.51708984375 -0.375 Q 0.51708984375 -0.3515625 0.502197265625 -0.334716796875 Q 0.4873046875 -0.31787109375 0.4638671875 -0.31787109375 Q 0.44970703125 -0.31787109375 0.439453125 -0.3271484375 Q 0.42919921875 -0.33642578125 0.42919921875 -0.35107421875 Q 0.42919921875 -0.369140625 0.44091796875 -0.38330078125 Q 0.45263671875 -0.3974609375 0.46923828125 -0.40185546875 Q 0.45361328125 -0.416015625 0.42578125 -0.416015625 Q 0.396484375 -0.416015625 0.37548828125 -0.385498046875 Q 0.3544921875 -0.35498046875 0.34619140625 -0.31982421875 L 0.30078125 -0.14111328125 Q 0.29736328125 -0.12451171875 0.293701171875 -0.106201171875 Q 0.2900390625 -0.087890625 0.2900390625 -0.07421875 Q 0.2900390625 -0.05029296875 0.3017578125 -0.03271484375 Q 0.3134765625 -0.01513671875 0.3359375 -0.01513671875 Q 0.36572265625 -0.01513671875 0.390869140625 -0.03564453125 Q 0.416015625 -0.05615234375 0.432373046875 -0.086181640625 Q 0.44873046875 -0.1162109375 0.4560546875 -0.14697265625 Q 0.4580078125 -0.15283203125 0.4638671875 -0.15283203125 L 0.48193359375 -0.15283203125 Q 0.48583984375 -0.15283203125 0.488525390625 -0.150390625 Q 0.4912109375 -0.14794921875 0.4912109375 -0.14404296875 Q 0.4912109375 -0.14306640625 0.490234375 -0.14111328125 Q 0.48095703125 -0.10400390625 0.458984375 -0.06884765625 Q 0.43701171875 -0.03369140625 0.404052734375 -0.01123046875 Q 0.37109375 0.01123046875 0.333984375 0.01123046875 Q 0.3017578125 0.01123046875 0.276123046875 -0.006103515625 Q 0.25048828125 -0.0234375 0.23779296875 -0.05322265625 Q 0.22119140625 -0.025390625 0.197265625 -0.007080078125 Q 0.17333984375 0.01123046875 0.14404296875 0.01123046875 Q 0.10986328125 0.01123046875 0.08251953125 -0.006103515625 Q 0.05517578125 -0.0234375 0.05517578125 -0.05615234375 Q 0.05517578125 -0.0791015625 0.070068359375 -0.095947265625 Q 0.0849609375 -0.11279296875 0.10693359375 -0.11279296875 Q 0.12255859375 -0.11279296875 0.1328125 -0.103759765625 Q 0.14306640625 -0.0947265625 0.14306640625 -0.080078125 Q 0.14306640625 -0.0625 0.13134765625 -0.04833984375 Q 0.11962890625 -0.0341796875 0.10205078125 -0.02880859375 Z"/></g></g><g transform="scale(25,25)"><g transform="translate(13.04,10.014)"><path fill="rgb(0,0,0)" stroke="none" paint-order="stroke fill markers" d=" M 0.22998046875 0.01123046875 Q 0.1728515625 0.01123046875 0.142822265625 -0.035400390625 Q 0.11279296875 -0.08203125 0.11279296875 -0.14208984375 Q 0.11279296875 -0.15673828125 0.117919921875 -0.182373046875 Q 0.123046875 -0.2080078125 0.123046875 -0.216796875 L 0.22021484375 -0.60498046875 Q 0.22412109375 -0.6220703125 0.22509765625 -0.6318359375 Q 0.22509765625 -0.64794921875 0.16015625 -0.64794921875 Q 0.14990234375 -0.64794921875 0.14990234375 -0.6611328125 Q 0.150390625 -0.66357421875 0.152099609375 -0.669921875 Q 0.15380859375 -0.67626953125 0.156494140625 -0.6796875 Q 0.1591796875 -0.68310546875 0.1640625 -0.68310546875 L 0.2958984375 -0.69384765625 Q 0.30810546875 -0.69384765625 0.30810546875 -0.68115234375 L 0.23583984375 -0.39208984375 Q 0.28662109375 -0.44189453125 0.337890625 -0.44189453125 Q 0.37841796875 -0.44189453125 0.40625 -0.419189453125 Q 0.43408203125 -0.396484375 0.447509765625 -0.3603515625 Q 0.4609375 -0.32421875 0.4609375 -0.2861328125 Q 0.4609375 -0.23974609375 0.443115234375 -0.187255859375 Q 0.42529296875 -0.134765625 0.3935546875 -0.08984375 Q 0.36181640625 -0.044921875 0.31982421875 -0.016845703125 Q 0.27783203125 0.01123046875 0.22998046875 0.01123046875 M 0.23095703125 -0.01513671875 Q 0.26708984375 -0.01513671875 0.297119140625 -0.05078125 Q 0.3271484375 -0.08642578125 0.34765625 -0.139892578125 Q 0.3681640625 -0.193359375 0.379150390625 -0.24658203125 Q 0.39013671875 -0.2998046875 0.39013671875 -0.33203125 Q 0.39013671875 -0.3642578125 0.3779296875 -0.39013671875 Q 0.36572265625 -0.416015625 0.3359375 -0.416015625 Q 0.30224609375 -0.416015625 0.271240234375 -0.38671875 Q 0.240234375 -0.357421875 0.216796875 -0.31982421875 L 0.19091796875 -0.212890625 Q 0.173828125 -0.14892578125 0.1728515625 -0.10693359375 Q 0.1728515625 -0.0712890625 0.186279296875 -0.043212890625 Q 0.19970703125 -0.01513671875 0.23095703125 -0.01513671875 Z"/></g></g></g></g></svg>