<svg version="1.1" xmlns="http://www.w3.org/2000/svg" xmlns:xlink="http://www.w3.org/1999/xlink" width="428" height="282"><defs><clipPath id="VfWdLXGTMObW"><path fill="none" stroke="none" d=" M 0 0 L 428 0 L 428 282 L 0 282 L 0 0 Z"/></clipPath></defs><g transform="scale(1,1)" clip-path="url(#VfWdLXGTMObW)"><g><rect fill="rgb(255,255,255)" stroke="none" x="0" y="0" width="428" height="282" fill-opacity="1"/><path fill="rgb(21,101,192)" stroke="none" paint-order="stroke fill markers" fill-rule="evenodd" d=" M 56.806143461542206 213.58083949428337 L 235.71161699607413 213.58083949428337 L 235.71161699607413 34.67536595975122 L 56.806143461542234 34.67536595975119 Z" fill-opacity="0.2"/><path fill="none" stroke="rgb(21,101,192)" paint-order="fill stroke markers" d=" M 56.806143461542206 213.58083949428337 L 235.71161699607413 213.58083949428337 L 235.71161699607413 34.67536595975122 L 56.806143461542234 34.67536595975119 Z" stroke-opacity="0.8" stroke-linecap="round" stroke-linejoin="round" stroke-miterlimit="10" stroke-width="2.5"/><path fill="rgb(211,47,47)" stroke="none" paint-order="stroke fill markers" fill-rule="evenodd" d=" M 280.43798537970713 213.58083949428337 L 369.8907221469731 213.58083949428337 L 369.8907221469731 34.67536595975119 L 280.43798537970713 34.67536595975119 Z" fill-opacity="0.2"/><path fill="none" stroke="rgb(21,101,192)" paint-order="fill stroke markers" d=" M 56.806143461542206 213.58083949428337 L 235.71161699607413 213.58083949428337" stroke-opacity="0.8" stroke-linecap="round" stroke-linejoin="round" stroke-miterlimit="10" stroke-width="2.5"/><path fill="none" stroke="rgb(21,101,192)" paint-order="fill stroke markers" d=" M 235.71161699607413 213.58083949428337 L 235.71161699607413 34.67536595975122" stroke-opacity="0.8" stroke-linecap="round" stroke-linejoin="round" stroke-miterlimit="10" stroke-width="2.5"/><path fill="none" stroke="rgb(21,101,192)" paint-order="fill stroke markers" d=" M 235.71161699607413 34.67536595975122 L 56.806143461542234 34.67536595975119" stroke-opacity="0.8" stroke-linecap="round" stroke-linejoin="round" stroke-miterlimit="10" stroke-width="2.5"/><path fill="none" stroke="rgb(21,101,192)" paint-order="fill stroke markers" d=" M 56.806143461542234 34.67536595975119 L 56.806143461542206 213.58083949428337" stroke-opacity="0.8" stroke-linecap="round" stroke-linejoin="round" stroke-miterlimit="10" stroke-width="2.5"/><path fill="none" stroke="rgb(211,47,47)" paint-order="fill stroke markers" d=" M 280.43798537970713 213.58083949428337 L 369.8907221469731 213.58083949428337" stroke-opacity="0.8" stroke-linecap="round" stroke-linejoin="round" stroke-miterlimit="10" stroke-width="2.5"/><path fill="none" stroke="rgb(211,47,47)" paint-order="fill stroke markers" d=" M 369.8907221469731 213.58083949428337 L 369.8907221469731 34.67536595975119" stroke-opacity="0.8" stroke-linecap="round" stroke-linejoin="round" stroke-miterlimit="10" stroke-width="2.5"/><path fill="none" stroke="rgb(211,47,47)" paint-order="fill stroke markers" d=" M 369.8907221469731 34.67536595975119 L 280.43798537970713 34.67536595975119" stroke-opacity="0.8" stroke-linecap="round" stroke-linejoin="round" stroke-miterlimit="10" stroke-width="2.5"/><path fill="none" stroke="rgb(211,47,47)" paint-order="fill stroke markers" d=" M 280.43798537970713 34.67536595975119 L 280.43798537970713 213.58083949428337" stroke-opacity="0.8" stroke-linecap="round" stroke-linejoin="round" stroke-miterlimit="10" stroke-width="2.5"/><path fill="rgb(46,125,50)" stroke="none" paint-order="stroke fill markers" d=" M 57.806143461542206 213.58083949428337 C 57.806143461542206 214.13312424411416 57.358428211372996 214.58083949428337 56.806143461542206 214.58083949428337 C 56.25385871171141 214.58083949428337 55.806143461542206 214.13312424411416 55.806143461542206 213.58083949428337 C 55.806143461542206 213.02855474445258 56.25385871171141 212.58083949428337 56.806143461542206 212.58083949428337 C 57.358428211372996 212.58083949428337 57.806143461542206 213.02855474445258 57.806143461542206 213.58083949428337 Z" fill-opacity="1"/><path fill="none" stroke="rgb(0,0,0)" paint-order="fill stroke markers" d=" M 57.806143461542206 213.58083949428337 C 57.806143461542206 214.13312424411416 57.358428211372996 214.58083949428337 56.806143461542206 214.58083949428337 C 56.25385871171141 214.58083949428337 55.806143461542206 214.13312424411416 55.806143461542206 213.58083949428337 C 55.806143461542206 213.02855474445258 56.25385871171141 212.58083949428337 56.806143461542206 212.58083949428337 C 57.358428211372996 212.58083949428337 57.806143461542206 213.02855474445258 57.806143461542206 213.58083949428337 Z" stroke-opacity="1" stroke-linecap="round" stroke-linejoin="round" stroke-miterlimit="10"/><path fill="rgb(21,101,192)" stroke="none" paint-order="stroke fill markers" d=" M 236.71161699607413 213.58083949428337 C 236.71161699607413 214.13312424411416 236.26390174590492 214.58083949428337 235.71161699607413 214.58083949428337 C 235.15933224624334 214.58083949428337 234.71161699607413 214.13312424411416 234.71161699607413 213.58083949428337 C 234.71161699607413 213.02855474445258 235.15933224624334 212.58083949428337 235.71161699607413 212.58083949428337 C 236.26390174590492 212.58083949428337 236.71161699607413 213.02855474445258 236.71161699607413 213.58083949428337 Z" fill-opacity="1"/><path fill="none" stroke="rgb(0,0,0)" paint-order="fill stroke markers" d=" M 236.71161699607413 213.58083949428337 C 236.71161699607413 214.13312424411416 236.26390174590492 214.58083949428337 235.71161699607413 214.58083949428337 C 235.15933224624334 214.58083949428337 234.71161699607413 214.13312424411416 234.71161699607413 213.58083949428337 C 234.71161699607413 213.02855474445258 235.15933224624334 212.58083949428337 235.71161699607413 212.58083949428337 C 236.26390174590492 212.58083949428337 236.71161699607413 213.02855474445258 236.71161699607413 213.58083949428337 Z" stroke-opacity="1" stroke-linecap="round" stroke-linejoin="round" stroke-miterlimit="10"/><path fill="rgb(46,125,50)" stroke="none" paint-order="stroke fill markers" d=" M 236.71161699607413 34.67536595975122 C 236.71161699607413 35.22765070958201 236.26390174590492 35.67536595975122 235.71161699607413 35.67536595975122 C 235.15933224624334 35.67536595975122 234.71161699607413 35.22765070958201 234.71161699607413 34.67536595975122 C 234.71161699607413 34.12308120992042 235.15933224624334 33.67536595975122 235.71161699607413 33.67536595975122 C 236.26390174590492 33.67536595975122 236.71161699607413 34.12308120992042 236.71161699607413 34.67536595975122 Z" fill-opacity="1"/><path fill="none" stroke="rgb(0,0,0)" paint-order="fill stroke markers" d=" M 236.71161699607413 34.67536595975122 C 236.71161699607413 35.22765070958201 236.26390174590492 35.67536595975122 235.71161699607413 35.67536595975122 C 235.15933224624334 35.67536595975122 234.71161699607413 35.22765070958201 234.71161699607413 34.67536595975122 C 234.71161699607413 34.12308120992042 235.15933224624334 33.67536595975122 235.71161699607413 33.67536595975122 C 236.26390174590492 33.67536595975122 236.71161699607413 34.12308120992042 236.71161699607413 34.67536595975122 Z" stroke-opacity="1" stroke-linecap="round" stroke-linejoin="round" stroke-miterlimit="10"/><path fill="rgb(46,125,50)" stroke="none" paint-order="stroke fill markers" d=" M 57.806143461542234 34.67536595975119 C 57.806143461542234 35.22765070958198 57.358428211373024 35.67536595975119 56.806143461542234 35.67536595975119 C 56.25385871171144 35.67536595975119 55.806143461542234 35.22765070958198 55.806143461542234 34.67536595975119 C 55.806143461542234 34.12308120992039 56.25385871171144 33.67536595975119 56.806143461542234 33.67536595975119 C 57.358428211373024 33.67536595975119 57.806143461542234 34.12308120992039 57.806143461542234 34.67536595975119 Z" fill-opacity="1"/><path fill="none" stroke="rgb(0,0,0)" paint-order="fill stroke markers" d=" M 57.806143461542234 34.67536595975119 C 57.806143461542234 35.22765070958198 57.358428211373024 35.67536595975119 56.806143461542234 35.67536595975119 C 56.25385871171144 35.67536595975119 55.806143461542234 35.22765070958198 55.806143461542234 34.67536595975119 C 55.806143461542234 34.12308120992039 56.25385871171144 33.67536595975119 56.806143461542234 33.67536595975119 C 57.358428211373024 33.67536595975119 57.806143461542234 34.12308120992039 57.806143461542234 34.67536595975119 Z" stroke-opacity="1" stroke-linecap="round" stroke-linejoin="round" stroke-miterlimit="10"/><path fill="rgb(21,101,192)" stroke="none" paint-order="stroke fill markers" d=" M 370.8907221469731 34.67536595975119 C 370.8907221469731 35.22765070958198 370.44300689680387 35.67536595975119 369.8907221469731 35.67536595975119 C 369.3384373971423 35.67536595975119 368.8907221469731 35.22765070958198 368.8907221469731 34.67536595975119 C 368.8907221469731 34.12308120992039 369.3384373971423 33.67536595975119 369.8907221469731 33.67536595975119 C 370.44300689680387 33.67536595975119 370.8907221469731 34.12308120992039 370.8907221469731 34.67536595975119 Z" fill-opacity="1"/><path fill="none" stroke="rgb(0,0,0)" paint-order="fill stroke markers" d=" M 370.8907221469731 34.67536595975119 C 370.8907221469731 35.22765070958198 370.44300689680387 35.67536595975119 369.8907221469731 35.67536595975119 C 369.3384373971423 35.67536595975119 368.8907221469731 35.22765070958198 368.8907221469731 34.67536595975119 C 368.8907221469731 34.12308120992039 369.3384373971423 33.67536595975119 369.8907221469731 33.67536595975119 C 370.44300689680387 33.67536595975119 370.8907221469731 34.12308120992039 370.8907221469731 34.67536595975119 Z" stroke-opacity="1" stroke-linecap="round" stroke-linejoin="round" stroke-miterlimit="10"/><path fill="rgb(21,101,192)" stroke="none" paint-order="stroke fill markers" d=" M 281.43798537970713 213.58083949428337 C 281.43798537970713 214.13312424411416 280.9902701295379 214.58083949428337 280.43798537970713 214.58083949428337 C 279.88570062987634 214.58083949428337 279.43798537970713 214.13312424411416 279.43798537970713 213.58083949428337 C 279.43798537970713 213.02855474445258 279.88570062987634 212.58083949428337 280.43798537970713 212.58083949428337 C 280.9902701295379 212.58083949428337 281.43798537970713 213.02855474445258 281.43798537970713 213.58083949428337 Z" fill-opacity="1"/><path fill="none" stroke="rgb(0,0,0)" paint-order="fill stroke markers" d=" M 281.43798537970713 213.58083949428337 C 281.43798537970713 214.13312424411416 280.9902701295379 214.58083949428337 280.43798537970713 214.58083949428337 C 279.88570062987634 214.58083949428337 279.43798537970713 214.13312424411416 279.43798537970713 213.58083949428337 C 279.43798537970713 213.02855474445258 279.88570062987634 212.58083949428337 280.43798537970713 212.58083949428337 C 280.9902701295379 212.58083949428337 281.43798537970713 213.02855474445258 281.43798537970713 213.58083949428337 Z" stroke-opacity="1" stroke-linecap="round" stroke-linejoin="round" stroke-miterlimit="10"/><path fill="rgb(21,101,192)" stroke="none" paint-order="stroke fill markers" d=" M 281.43798537970713 34.67536595975119 C 281.43798537970713 35.22765070958198 280.9902701295379 35.67536595975119 280.43798537970713 35.67536595975119 C 279.88570062987634 35.67536595975119 279.43798537970713 35.22765070958198 279.43798537970713 34.67536595975119 C 279.43798537970713 34.12308120992039 279.88570062987634 33.67536595975119 280.43798537970713 33.67536595975119 C 280.9902701295379 33.67536595975119 281.43798537970713 34.12308120992039 281.43798537970713 34.67536595975119 Z" fill-opacity="1"/><path fill="none" stroke="rgb(0,0,0)" paint-order="fill stroke markers" d=" M 281.43798537970713 34.67536595975119 C 281.43798537970713 35.22765070958198 280.9902701295379 35.67536595975119 280.43798537970713 35.67536595975119 C 279.88570062987634 35.67536595975119 279.43798537970713 35.22765070958198 279.43798537970713 34.67536595975119 C 279.43798537970713 34.12308120992039 279.88570062987634 33.67536595975119 280.43798537970713 33.67536595975119 C 280.9902701295379 33.67536595975119 281.43798537970713 34.12308120992039 281.43798537970713 34.67536595975119 Z" stroke-opacity="1" stroke-linecap="round" stroke-linejoin="round" stroke-miterlimit="10"/><path fill="rgb(21,101,192)" stroke="none" paint-order="stroke fill markers" d=" M 370.8907221469731 213.58083949428337 C 370.8907221469731 214.13312424411416 370.44300689680387 214.58083949428337 369.8907221469731 214.58083949428337 C 369.3384373971423 214.58083949428337 368.8907221469731 214.13312424411416 368.8907221469731 213.58083949428337 C 368.8907221469731 213.02855474445258 369.3384373971423 212.58083949428337 369.8907221469731 212.58083949428337 C 370.44300689680387 212.58083949428337 370.8907221469731 213.02855474445258 370.8907221469731 213.58083949428337 Z" fill-opacity="1"/><path fill="none" stroke="rgb(0,0,0)" paint-order="fill stroke markers" d=" M 370.8907221469731 213.58083949428337 C 370.8907221469731 214.13312424411416 370.44300689680387 214.58083949428337 369.8907221469731 214.58083949428337 C 369.3384373971423 214.58083949428337 368.8907221469731 214.13312424411416 368.8907221469731 213.58083949428337 C 368.8907221469731 213.02855474445258 369.3384373971423 212.58083949428337 369.8907221469731 212.58083949428337 C 370.44300689680387 212.58083949428337 370.8907221469731 213.02855474445258 370.8907221469731 213.58083949428337 Z" stroke-opacity="1" stroke-linecap="round" stroke-linejoin="round" stroke-miterlimit="10"/><g transform="scale(25,25)"><g transform="translate(5.68,9.991)"><path fill="rgb(0,0,0)" stroke="none" paint-order="stroke fill markers" d=" M 0.10205078125 -0.02880859375 Q 0.11865234375 -0.01513671875 0.14501953125 -0.01513671875 Q 0.17529296875 -0.01513671875 0.19580078125 -0.045166015625 Q 0.21630859375 -0.0751953125 0.22509765625 -0.11083984375 L 0.27001953125 -0.2900390625 Q 0.28076171875 -0.33203125 0.28076171875 -0.35693359375 Q 0.28076171875 -0.38134765625 0.26953125 -0.398681640625 Q 0.25830078125 -0.416015625 0.23583984375 -0.416015625 Q 0.20654296875 -0.416015625 0.18115234375 -0.3955078125 Q 0.15576171875 -0.375 0.13916015625 -0.344482421875 Q 0.12255859375 -0.31396484375 0.115234375 -0.2841796875 Q 0.1123046875 -0.27783203125 0.10693359375 -0.27783203125 L 0.0888671875 -0.27783203125 Q 0.0810546875 -0.27783203125 0.0810546875 -0.287109375 L 0.0810546875 -0.2900390625 Q 0.09033203125 -0.326171875 0.11279296875 -0.361572265625 Q 0.13525390625 -0.39697265625 0.16748046875 -0.41943359375 Q 0.19970703125 -0.44189453125 0.23681640625 -0.44189453125 Q 0.26904296875 -0.44189453125 0.295166015625 -0.4248046875 Q 0.3212890625 -0.40771484375 0.333984375 -0.3779296875 Q 0.3505859375 -0.40576171875 0.375244140625 -0.423828125 Q 0.39990234375 -0.44189453125 0.42822265625 -0.44189453125 Q 0.4453125 -0.44189453125 0.46044921875 -0.43798828125 Q 0.4755859375 -0.43408203125 0.48828125 -0.42578125 Q 0.5009765625 -0.41748046875 0.509033203125 -0.405029296875 Q 0.51708984375 -0.392578125 0.51708984375 -0.375 Q 0.51708984375 -0.3515625 0.502197265625 -0.334716796875 Q 0.4873046875 -0.31787109375 0.4638671875 -0.31787109375 Q 0.44970703125 -0.31787109375 0.439453125 -0.3271484375 Q 0.42919921875 -0.33642578125 0.42919921875 -0.35107421875 Q 0.42919921875 -0.369140625 0.44091796875 -0.38330078125 Q 0.45263671875 -0.3974609375 0.46923828125 -0.40185546875 Q 0.45361328125 -0.416015625 0.42578125 -0.416015625 Q 0.396484375 -0.416015625 0.37548828125 -0.385498046875 Q 0.3544921875 -0.35498046875 0.34619140625 -0.31982421875 L 0.30078125 -0.14111328125 Q 0.29736328125 -0.12451171875 0.293701171875 -0.106201171875 Q 0.2900390625 -0.087890625 0.2900390625 -0.07421875 Q 0.2900390625 -0.05029296875 0.3017578125 -0.03271484375 Q 0.3134765625 -0.01513671875 0.3359375 -0.01513671875 Q 0.36572265625 -0.01513671875 0.390869140625 -0.03564453125 Q 0.416015625 -0.05615234375 0.432373046875 -0.086181640625 Q 0.44873046875 -0.1162109375 0.4560546875 -0.14697265625 Q 0.4580078125 -0.15283203125 0.4638671875 -0.15283203125 L 0.48193359375 -0.15283203125 Q 0.48583984375 -0.15283203125 0.488525390625 -0.150390625 Q 0.4912109375 -0.14794921875 0.4912109375 -0.14404296875 Q 0.4912109375 -0.14306640625 0.490234375 -0.14111328125 Q 0.48095703125 -0.10400390625 0.458984375 -0.06884765625 Q 0.43701171875 -0.03369140625 0.404052734375 -0.01123046875 Q 0.37109375 0.01123046875 0.333984375 0.01123046875 Q 0.3017578125 0.01123046875 0.276123046875 -0.006103515625 Q 0.25048828125 -0.0234375 0.23779296875 -0.05322265625 Q 0.22119140625 -0.025390625 0.197265625 -0.007080078125 Q 0.17333984375 0.01123046875 0.14404296875 0.01123046875 Q 0.10986328125 0.01123046875 0.08251953125 -0.006103515625 Q 0.05517578125 -0.0234375 0.05517578125 -0.05615234375 Q 0.05517578125 -0.0791015625 0.070068359375 -0.095947265625 Q 0.0849609375 -0.11279296875 0.10693359375 -0.11279296875 Q 0.12255859375 -0.11279296875 0.1328125 -0.103759765625 Q 0.14306640625 -0.0947265625 0.14306640625 -0.080078125 Q 0.14306640625 -0.0625 0.13134765625 -0.04833984375 Q 0.11962890625 -0.0341796875 0.10205078125 -0.02880859375 Z"/></g></g><g transform="scale(25,25)"><g transform="translate(1.2,5.271)"><path fill="rgb(0,0,0)" stroke="none" paint-order="stroke fill markers" d=" M 0.10205078125 -0.02880859375 Q 0.11865234375 -0.01513671875 0.14501953125 -0.01513671875 Q 0.17529296875 -0.01513671875 0.19580078125 -0.045166015625 Q 0.21630859375 -0.0751953125 0.22509765625 -0.11083984375 L 0.27001953125 -0.2900390625 Q 0.28076171875 -0.33203125 0.28076171875 -0.35693359375 Q 0.28076171875 -0.38134765625 0.26953125 -0.398681640625 Q 0.25830078125 -0.416015625 0.23583984375 -0.416015625 Q 0.20654296875 -0.416015625 0.18115234375 -0.3955078125 Q 0.15576171875 -0.375 0.13916015625 -0.344482421875 Q 0.12255859375 -0.31396484375 0.115234375 -0.2841796875 Q 0.1123046875 -0.27783203125 0.10693359375 -0.27783203125 L 0.0888671875 -0.27783203125 Q 0.0810546875 -0.27783203125 0.0810546875 -0.287109375 L 0.0810546875 -0.2900390625 Q 0.09033203125 -0.326171875 0.11279296875 -0.361572265625 Q 0.13525390625 -0.39697265625 0.16748046875 -0.41943359375 Q 0.19970703125 -0.44189453125 0.23681640625 -0.44189453125 Q 0.26904296875 -0.44189453125 0.295166015625 -0.4248046875 Q 0.3212890625 -0.40771484375 0.333984375 -0.3779296875 Q 0.3505859375 -0.40576171875 0.375244140625 -0.423828125 Q 0.39990234375 -0.44189453125 0.42822265625 -0.44189453125 Q 0.4453125 -0.44189453125 0.46044921875 -0.43798828125 Q 0.4755859375 -0.43408203125 0.48828125 -0.42578125 Q 0.5009765625 -0.41748046875 0.509033203125 -0.405029296875 Q 0.51708984375 -0.392578125 0.51708984375 -0.375 Q 0.51708984375 -0.3515625 0.502197265625 -0.334716796875 Q 0.4873046875 -0.31787109375 0.4638671875 -0.31787109375 Q 0.44970703125 -0.31787109375 0.439453125 -0.3271484375 Q 0.42919921875 -0.33642578125 0.42919921875 -0.35107421875 Q 0.42919921875 -0.369140625 0.44091796875 -0.38330078125 Q 0.45263671875 -0.3974609375 0.46923828125 -0.40185546875 Q 0.45361328125 -0.416015625 0.42578125 -0.416015625 Q 0.396484375 -0.416015625 0.37548828125 -0.385498046875 Q 0.3544921875 -0.35498046875 0.34619140625 -0.31982421875 L 0.30078125 -0.14111328125 Q 0.29736328125 -0.12451171875 0.293701171875 -0.106201171875 Q 0.2900390625 -0.087890625 0.2900390625 -0.07421875 Q 0.2900390625 -0.05029296875 0.3017578125 -0.03271484375 Q 0.3134765625 -0.01513671875 0.3359375 -0.01513671875 Q 0.36572265625 -0.01513671875 0.390869140625 -0.03564453125 Q 0.416015625 -0.05615234375 0.432373046875 -0.086181640625 Q 0.44873046875 -0.1162109375 0.4560546875 -0.14697265625 Q 0.4580078125 -0.15283203125 0.4638671875 -0.15283203125 L 0.48193359375 -0.15283203125 Q 0.48583984375 -0.15283203125 0.488525390625 -0.150390625 Q 0.4912109375 -0.14794921875 0.4912109375 -0.14404296875 Q 0.4912109375 -0.14306640625 0.490234375 -0.14111328125 Q 0.48095703125 -0.10400390625 0.458984375 -0.06884765625 Q 0.43701171875 -0.03369140625 0.404052734375 -0.01123046875 Q 0.37109375 0.01123046875 0.333984375 0.01123046875 Q 0.3017578125 0.01123046875 0.276123046875 -0.006103515625 Q 0.25048828125 -0.0234375 0.23779296875 -0.05322265625 Q 0.22119140625 -0.025390625 0.197265625 -0.007080078125 Q 0.17333984375 0.01123046875 0.14404296875 0.01123046875 Q 0.10986328125 0.01123046875 0.08251953125 -0.006103515625 Q 0.05517578125 -0.0234375 0.05517578125 -0.05615234375 Q 0.05517578125 -0.0791015625 0.070068359375 -0.095947265625 Q 0.0849609375 -0.11279296875 0.10693359375 -0.11279296875 Q 0.12255859375 -0.11279296875 0.1328125 -0.103759765625 Q 0.14306640625 -0.0947265625 0.14306640625 -0.080078125 Q 0.14306640625 -0.0625 0.13134765625 -0.04833984375 Q 0.11962890625 -0.0341796875 0.10205078125 -0.02880859375 Z"/></g></g><g transform="scale(25,25)"><g transform="translate(15.16,5.231)"><path fill="rgb(0,0,0)" stroke="none" paint-order="stroke fill markers" d=" M 0.10205078125 -0.02880859375 Q 0.11865234375 -0.01513671875 0.14501953125 -0.01513671875 Q 0.17529296875 -0.01513671875 0.19580078125 -0.045166015625 Q 0.21630859375 -0.0751953125 0.22509765625 -0.11083984375 L 0.27001953125 -0.2900390625 Q 0.28076171875 -0.33203125 0.28076171875 -0.35693359375 Q 0.28076171875 -0.38134765625 0.26953125 -0.398681640625 Q 0.25830078125 -0.416015625 0.23583984375 -0.416015625 Q 0.20654296875 -0.416015625 0.18115234375 -0.3955078125 Q 0.15576171875 -0.375 0.13916015625 -0.344482421875 Q 0.12255859375 -0.31396484375 0.115234375 -0.2841796875 Q 0.1123046875 -0.27783203125 0.10693359375 -0.27783203125 L 0.0888671875 -0.27783203125 Q 0.0810546875 -0.27783203125 0.0810546875 -0.287109375 L 0.0810546875 -0.2900390625 Q 0.09033203125 -0.326171875 0.11279296875 -0.361572265625 Q 0.13525390625 -0.39697265625 0.16748046875 -0.41943359375 Q 0.19970703125 -0.44189453125 0.23681640625 -0.44189453125 Q 0.26904296875 -0.44189453125 0.295166015625 -0.4248046875 Q 0.3212890625 -0.40771484375 0.333984375 -0.3779296875 Q 0.3505859375 -0.40576171875 0.375244140625 -0.423828125 Q 0.39990234375 -0.44189453125 0.42822265625 -0.44189453125 Q 0.4453125 -0.44189453125 0.46044921875 -0.43798828125 Q 0.4755859375 -0.43408203125 0.48828125 -0.42578125 Q 0.5009765625 -0.41748046875 0.509033203125 -0.405029296875 Q 0.51708984375 -0.392578125 0.51708984375 -0.375 Q 0.51708984375 -0.3515625 0.502197265625 -0.334716796875 Q 0.4873046875 -0.31787109375 0.4638671875 -0.31787109375 Q 0.44970703125 -0.31787109375 0.439453125 -0.3271484375 Q 0.42919921875 -0.33642578125 0.42919921875 -0.35107421875 Q 0.42919921875 -0.369140625 0.44091796875 -0.38330078125 Q 0.45263671875 -0.3974609375 0.46923828125 -0.40185546875 Q 0.45361328125 -0.416015625 0.42578125 -0.416015625 Q 0.396484375 -0.416015625 0.37548828125 -0.385498046875 Q 0.3544921875 -0.35498046875 0.34619140625 -0.31982421875 L 0.30078125 -0.14111328125 Q 0.29736328125 -0.12451171875 0.293701171875 -0.106201171875 Q 0.2900390625 -0.087890625 0.2900390625 -0.07421875 Q 0.2900390625 -0.05029296875 0.3017578125 -0.03271484375 Q 0.3134765625 -0.01513671875 0.3359375 -0.01513671875 Q 0.36572265625 -0.01513671875 0.390869140625 -0.03564453125 Q 0.416015625 -0.05615234375 0.432373046875 -0.086181640625 Q 0.44873046875 -0.1162109375 0.4560546875 -0.14697265625 Q 0.4580078125 -0.15283203125 0.4638671875 -0.15283203125 L 0.48193359375 -0.15283203125 Q 0.48583984375 -0.15283203125 0.488525390625 -0.150390625 Q 0.4912109375 -0.14794921875 0.4912109375 -0.14404296875 Q 0.4912109375 -0.14306640625 0.490234375 -0.14111328125 Q 0.48095703125 -0.10400390625 0.458984375 -0.06884765625 Q 0.43701171875 -0.03369140625 0.404052734375 -0.01123046875 Q 0.37109375 0.01123046875 0.333984375 0.01123046875 Q 0.3017578125 0.01123046875 0.276123046875 -0.006103515625 Q 0.25048828125 -0.0234375 0.23779296875 -0.05322265625 Q 0.22119140625 -0.025390625 0.197265625 -0.007080078125 Q 0.17333984375 0.01123046875 0.14404296875 0.01123046875 Q 0.10986328125 0.01123046875 0.08251953125 -0.006103515625 Q 0.05517578125 -0.0234375 0.05517578125 -0.05615234375 Q 0.05517578125 -0.0791015625 0.070068359375 -0.095947265625 Q 0.0849609375 -0.11279296875 0.10693359375 -0.11279296875 Q 0.12255859375 -0.11279296875 0.1328125 -0.103759765625 Q 0.14306640625 -0.0947265625 0.14306640625 -0.080078125 Q 0.14306640625 -0.0625 0.13134765625 -0.04833984375 Q 0.11962890625 -0.0341796875 0.10205078125 -0.02880859375 Z"/></g></g><g transform="scale(25,25)"><g transform="translate(12.88,10.053999999999998)"><path fill="rgb(0,0,0)" stroke="none" paint-order="stroke fill markers" d=" M 0.22998046875 0.01123046875 Q 0.1728515625 0.01123046875 0.142822265625 -0.035400390625 Q 0.11279296875 -0.08203125 0.11279296875 -0.14208984375 Q 0.11279296875 -0.15673828125 0.117919921875 -0.182373046875 Q 0.123046875 -0.2080078125 0.123046875 -0.216796875 L 0.22021484375 -0.60498046875 Q 0.22412109375 -0.6220703125 0.22509765625 -0.6318359375 Q 0.22509765625 -0.64794921875 0.16015625 -0.64794921875 Q 0.14990234375 -0.64794921875 0.14990234375 -0.6611328125 Q 0.150390625 -0.66357421875 0.152099609375 -0.669921875 Q 0.15380859375 -0.67626953125 0.156494140625 -0.6796875 Q 0.1591796875 -0.68310546875 0.1640625 -0.68310546875 L 0.2958984375 -0.69384765625 Q 0.30810546875 -0.69384765625 0.30810546875 -0.68115234375 L 0.23583984375 -0.39208984375 Q 0.28662109375 -0.44189453125 0.337890625 -0.44189453125 Q 0.37841796875 -0.44189453125 0.40625 -0.419189453125 Q 0.43408203125 -0.396484375 0.447509765625 -0.3603515625 Q 0.4609375 -0.32421875 0.4609375 -0.2861328125 Q 0.4609375 -0.23974609375 0.443115234375 -0.187255859375 Q 0.42529296875 -0.134765625 0.3935546875 -0.08984375 Q 0.36181640625 -0.044921875 0.31982421875 -0.016845703125 Q 0.27783203125 0.01123046875 0.22998046875 0.01123046875 M 0.23095703125 -0.01513671875 Q 0.26708984375 -0.01513671875 0.297119140625 -0.05078125 Q 0.3271484375 -0.08642578125 0.34765625 -0.139892578125 Q 0.3681640625 -0.193359375 0.379150390625 -0.24658203125 Q 0.39013671875 -0.2998046875 0.39013671875 -0.33203125 Q 0.39013671875 -0.3642578125 0.3779296875 -0.39013671875 Q 0.36572265625 -0.416015625 0.3359375 -0.416015625 Q 0.30224609375 -0.416015625 0.271240234375 -0.38671875 Q 0.240234375 -0.357421875 0.216796875 -0.31982421875 L 0.19091796875 -0.212890625 Q 0.173828125 -0.14892578125 0.1728515625 -0.10693359375 Q 0.1728515625 -0.0712890625 0.186279296875 -0.043212890625 Q 0.19970703125 -0.01513671875 0.23095703125 -0.01513671875 Z"/></g></g></g></g></svg>