<svg version="1.1" xmlns="http://www.w3.org/2000/svg" xmlns:xlink="http://www.w3.org/1999/xlink" width="444" height="395"><defs><clipPath id="QgKBChOzzFuf"><path fill="none" stroke="none" d=" M 0 0 L 444 0 L 444 395 L 0 395 L 0 0 Z"/></clipPath></defs><g transform="scale(1,1)" clip-path="url(#QgKBChOzzFuf)"><g><rect fill="rgb(255,255,255)" stroke="none" x="0" y="0" width="444" height="395" fill-opacity="1"/><path fill="rgb(21,101,192)" stroke="none" paint-order="stroke fill markers" fill-rule="evenodd" d=" M 99.0927112340936 311.3543103356386 L 300.1403871316129 311.3543103356386 L 300.1403871316129 110.30663443811841 L 99.09271123409363 110.30663443811835 Z" fill-opacity="0.2"/><path fill="none" stroke="rgb(21,101,192)" paint-order="fill stroke markers" d=" M 99.0927112340936 311.3543103356386 L 300.1403871316129 311.3543103356386 L 300.1403871316129 110.30663443811841 L 99.09271123409363 110.30663443811835 Z" stroke-opacity="0.8" stroke-linecap="round" stroke-linejoin="round" stroke-miterlimit="10" stroke-width="2.5"/><path fill="rgb(46,125,50)" stroke="none" paint-order="stroke fill markers" fill-rule="evenodd" d=" M 300.1403871316129 311.3543103356386 L 350.4023061059927 311.3543103356386 L 350.4023061059927 110.30663443811835 L 300.1403871316129 110.30663443811835 Z" fill-opacity="0.2"/><path fill="rgb(46,125,50)" stroke="none" paint-order="stroke fill markers" fill-rule="evenodd" d=" M 99.09271123409363 110.30663443811835 L 99.0927112340936 60.04471546373827 L 300.1403871316129 60.04471546373827 L 300.1403871316129 110.30663443811835 Z" fill-opacity="0.14901960784313725"/><path fill="none" stroke="rgb(21,101,192)" paint-order="fill stroke markers" d=" M 99.0927112340936 311.3543103356386 L 300.1403871316129 311.3543103356386" stroke-opacity="0.8" stroke-linecap="round" stroke-linejoin="round" stroke-miterlimit="10" stroke-width="2.5"/><path fill="none" stroke="rgb(21,101,192)" paint-order="fill stroke markers" d=" M 300.1403871316129 311.3543103356386 L 300.1403871316129 110.30663443811841" stroke-opacity="0.8" stroke-linecap="round" stroke-linejoin="round" stroke-miterlimit="10" stroke-width="2.5"/><path fill="none" stroke="rgb(21,101,192)" paint-order="fill stroke markers" d=" M 300.1403871316129 110.30663443811841 L 99.09271123409363 110.30663443811835" stroke-opacity="0.8" stroke-linecap="round" stroke-linejoin="round" stroke-miterlimit="10" stroke-width="2.5"/><path fill="none" stroke="rgb(21,101,192)" paint-order="fill stroke markers" d=" M 99.09271123409363 110.30663443811835 L 99.0927112340936 311.3543103356386" stroke-opacity="0.8" stroke-linecap="round" stroke-linejoin="round" stroke-miterlimit="10" stroke-width="2.5"/><path fill="none" stroke="rgb(46,125,50)" paint-order="fill stroke markers" d=" M 300.1403871316129 311.3543103356386 L 350.4023061059927 311.3543103356386" stroke-opacity="0.8" stroke-linecap="round" stroke-linejoin="round" stroke-miterlimit="10" stroke-width="2.5"/><path fill="none" stroke="rgb(46,125,50)" paint-order="fill stroke markers" d=" M 350.4023061059927 311.3543103356386 L 350.4023061059927 110.30663443811835" stroke-opacity="0.8" stroke-linecap="round" stroke-linejoin="round" stroke-miterlimit="10" stroke-width="2.5"/><path fill="none" stroke="rgb(46,125,50)" paint-order="fill stroke markers" d=" M 350.4023061059927 110.30663443811835 L 300.1403871316129 110.30663443811835" stroke-opacity="0.8" stroke-linecap="round" stroke-linejoin="round" stroke-miterlimit="10" stroke-width="2.5"/><path fill="none" stroke="rgb(46,125,50)" paint-order="fill stroke markers" d=" M 300.1403871316129 110.30663443811835 L 300.1403871316129 311.3543103356386" stroke-opacity="0.8" stroke-linecap="round" stroke-linejoin="round" stroke-miterlimit="10" stroke-width="2.5"/><path fill="none" stroke="rgb(46,125,50)" paint-order="fill stroke markers" d=" M 99.09271123409363 110.30663443811835 L 99.0927112340936 60.04471546373827" stroke-opacity="0.8" stroke-linecap="round" stroke-linejoin="round" stroke-miterlimit="10" stroke-width="2.5"/><path fill="none" stroke="rgb(46,125,50)" paint-order="fill stroke markers" d=" M 99.0927112340936 60.04471546373827 L 300.1403871316129 60.04471546373827" stroke-opacity="0.8" stroke-linecap="round" stroke-linejoin="round" stroke-miterlimit="10" stroke-width="2.5"/><path fill="none" stroke="rgb(46,125,50)" paint-order="fill stroke markers" d=" M 300.1403871316129 60.04471546373827 L 300.1403871316129 110.30663443811835" stroke-opacity="0.8" stroke-linecap="round" stroke-linejoin="round" stroke-miterlimit="10" stroke-width="2.5"/><path fill="none" stroke="rgb(46,125,50)" paint-order="fill stroke markers" d=" M 300.1403871316129 110.30663443811835 L 99.09271123409363 110.30663443811835" stroke-opacity="0.8" stroke-linecap="round" stroke-linejoin="round" stroke-miterlimit="10" stroke-width="2.5"/><path fill="rgb(46,125,50)" stroke="none" paint-order="stroke fill markers" d=" M 100.0927112340936 311.3543103356386 C 100.0927112340936 311.9065950854694 99.64499598392439 312.3543103356386 99.0927112340936 312.3543103356386 C 98.54042648426281 312.3543103356386 98.0927112340936 311.9065950854694 98.0927112340936 311.3543103356386 C 98.0927112340936 310.8020255858078 98.54042648426281 310.3543103356386 99.0927112340936 310.3543103356386 C 99.64499598392439 310.3543103356386 100.0927112340936 310.8020255858078 100.0927112340936 311.3543103356386 Z" fill-opacity="1"/><path fill="none" stroke="rgb(0,0,0)" paint-order="fill stroke markers" d=" M 100.0927112340936 311.3543103356386 C 100.0927112340936 311.9065950854694 99.64499598392439 312.3543103356386 99.0927112340936 312.3543103356386 C 98.54042648426281 312.3543103356386 98.0927112340936 311.9065950854694 98.0927112340936 311.3543103356386 C 98.0927112340936 310.8020255858078 98.54042648426281 310.3543103356386 99.0927112340936 310.3543103356386 C 99.64499598392439 310.3543103356386 100.0927112340936 310.8020255858078 100.0927112340936 311.3543103356386 Z" stroke-opacity="1" stroke-linecap="round" stroke-linejoin="round" stroke-miterlimit="10"/><path fill="rgb(21,101,192)" stroke="none" paint-order="stroke fill markers" d=" M 301.1403871316129 311.3543103356386 C 301.1403871316129 311.9065950854694 300.6926718814437 312.3543103356386 300.1403871316129 312.3543103356386 C 299.5881023817821 312.3543103356386 299.1403871316129 311.9065950854694 299.1403871316129 311.3543103356386 C 299.1403871316129 310.8020255858078 299.5881023817821 310.3543103356386 300.1403871316129 310.3543103356386 C 300.6926718814437 310.3543103356386 301.1403871316129 310.8020255858078 301.1403871316129 311.3543103356386 Z" fill-opacity="1"/><path fill="none" stroke="rgb(0,0,0)" paint-order="fill stroke markers" d=" M 301.1403871316129 311.3543103356386 C 301.1403871316129 311.9065950854694 300.6926718814437 312.3543103356386 300.1403871316129 312.3543103356386 C 299.5881023817821 312.3543103356386 299.1403871316129 311.9065950854694 299.1403871316129 311.3543103356386 C 299.1403871316129 310.8020255858078 299.5881023817821 310.3543103356386 300.1403871316129 310.3543103356386 C 300.6926718814437 310.3543103356386 301.1403871316129 310.8020255858078 301.1403871316129 311.3543103356386 Z" stroke-opacity="1" stroke-linecap="round" stroke-linejoin="round" stroke-miterlimit="10"/><path fill="rgb(46,125,50)" stroke="none" paint-order="stroke fill markers" d=" M 301.1403871316129 110.30663443811841 C 301.1403871316129 110.8589191879492 300.6926718814437 111.30663443811841 300.1403871316129 111.30663443811841 C 299.5881023817821 111.30663443811841 299.1403871316129 110.8589191879492 299.1403871316129 110.30663443811841 C 299.1403871316129 109.75434968828762 299.5881023817821 109.30663443811841 300.1403871316129 109.30663443811841 C 300.6926718814437 109.30663443811841 301.1403871316129 109.75434968828762 301.1403871316129 110.30663443811841 Z" fill-opacity="1"/><path fill="none" stroke="rgb(0,0,0)" paint-order="fill stroke markers" d=" M 301.1403871316129 110.30663443811841 C 301.1403871316129 110.8589191879492 300.6926718814437 111.30663443811841 300.1403871316129 111.30663443811841 C 299.5881023817821 111.30663443811841 299.1403871316129 110.8589191879492 299.1403871316129 110.30663443811841 C 299.1403871316129 109.75434968828762 299.5881023817821 109.30663443811841 300.1403871316129 109.30663443811841 C 300.6926718814437 109.30663443811841 301.1403871316129 109.75434968828762 301.1403871316129 110.30663443811841 Z" stroke-opacity="1" stroke-linecap="round" stroke-linejoin="round" stroke-miterlimit="10"/><path fill="rgb(46,125,50)" stroke="none" paint-order="stroke fill markers" d=" M 100.09271123409363 110.30663443811835 C 100.09271123409363 110.85891918794914 99.64499598392442 111.30663443811835 99.09271123409363 111.30663443811835 C 98.54042648426284 111.30663443811835 98.09271123409363 110.85891918794914 98.09271123409363 110.30663443811835 C 98.09271123409363 109.75434968828756 98.54042648426284 109.30663443811835 99.09271123409363 109.30663443811835 C 99.64499598392442 109.30663443811835 100.09271123409363 109.75434968828756 100.09271123409363 110.30663443811835 Z" fill-opacity="1"/><path fill="none" stroke="rgb(0,0,0)" paint-order="fill stroke markers" d=" M 100.09271123409363 110.30663443811835 C 100.09271123409363 110.85891918794914 99.64499598392442 111.30663443811835 99.09271123409363 111.30663443811835 C 98.54042648426284 111.30663443811835 98.09271123409363 110.85891918794914 98.09271123409363 110.30663443811835 C 98.09271123409363 109.75434968828756 98.54042648426284 109.30663443811835 99.09271123409363 109.30663443811835 C 99.64499598392442 109.30663443811835 100.09271123409363 109.75434968828756 100.09271123409363 110.30663443811835 Z" stroke-opacity="1" stroke-linecap="round" stroke-linejoin="round" stroke-miterlimit="10"/><path fill="rgb(21,101,192)" stroke="none" paint-order="stroke fill markers" d=" M 351.4023061059927 110.30663443811835 C 351.4023061059927 110.85891918794914 350.9545908558235 111.30663443811835 350.4023061059927 111.30663443811835 C 349.8500213561619 111.30663443811835 349.4023061059927 110.85891918794914 349.4023061059927 110.30663443811835 C 349.4023061059927 109.75434968828756 349.8500213561619 109.30663443811835 350.4023061059927 109.30663443811835 C 350.9545908558235 109.30663443811835 351.4023061059927 109.75434968828756 351.4023061059927 110.30663443811835 Z" fill-opacity="1"/><path fill="none" stroke="rgb(0,0,0)" paint-order="fill stroke markers" d=" M 351.4023061059927 110.30663443811835 C 351.4023061059927 110.85891918794914 350.9545908558235 111.30663443811835 350.4023061059927 111.30663443811835 C 349.8500213561619 111.30663443811835 349.4023061059927 110.85891918794914 349.4023061059927 110.30663443811835 C 349.4023061059927 109.75434968828756 349.8500213561619 109.30663443811835 350.4023061059927 109.30663443811835 C 350.9545908558235 109.30663443811835 351.4023061059927 109.75434968828756 351.4023061059927 110.30663443811835 Z" stroke-opacity="1" stroke-linecap="round" stroke-linejoin="round" stroke-miterlimit="10"/><path fill="rgb(21,101,192)" stroke="none" paint-order="stroke fill markers" d=" M 301.1403871316129 311.3543103356386 C 301.1403871316129 311.9065950854694 300.6926718814437 312.3543103356386 300.1403871316129 312.3543103356386 C 299.5881023817821 312.3543103356386 299.1403871316129 311.9065950854694 299.1403871316129 311.3543103356386 C 299.1403871316129 310.8020255858078 299.5881023817821 310.3543103356386 300.1403871316129 310.3543103356386 C 300.6926718814437 310.3543103356386 301.1403871316129 310.8020255858078 301.1403871316129 311.3543103356386 Z" fill-opacity="1"/><path fill="none" stroke="rgb(0,0,0)" paint-order="fill stroke markers" d=" M 301.1403871316129 311.3543103356386 C 301.1403871316129 311.9065950854694 300.6926718814437 312.3543103356386 300.1403871316129 312.3543103356386 C 299.5881023817821 312.3543103356386 299.1403871316129 311.9065950854694 299.1403871316129 311.3543103356386 C 299.1403871316129 310.8020255858078 299.5881023817821 310.3543103356386 300.1403871316129 310.3543103356386 C 300.6926718814437 310.3543103356386 301.1403871316129 310.8020255858078 301.1403871316129 311.3543103356386 Z" stroke-opacity="1" stroke-linecap="round" stroke-linejoin="round" stroke-miterlimit="10"/><path fill="rgb(21,101,192)" stroke="none" paint-order="stroke fill markers" d=" M 301.1403871316129 110.30663443811835 C 301.1403871316129 110.85891918794914 300.6926718814437 111.30663443811835 300.1403871316129 111.30663443811835 C 299.5881023817821 111.30663443811835 299.1403871316129 110.85891918794914 299.1403871316129 110.30663443811835 C 299.1403871316129 109.75434968828756 299.5881023817821 109.30663443811835 300.1403871316129 109.30663443811835 C 300.6926718814437 109.30663443811835 301.1403871316129 109.75434968828756 301.1403871316129 110.30663443811835 Z" fill-opacity="1"/><path fill="none" stroke="rgb(0,0,0)" paint-order="fill stroke markers" d=" M 301.1403871316129 110.30663443811835 C 301.1403871316129 110.85891918794914 300.6926718814437 111.30663443811835 300.1403871316129 111.30663443811835 C 299.5881023817821 111.30663443811835 299.1403871316129 110.85891918794914 299.1403871316129 110.30663443811835 C 299.1403871316129 109.75434968828756 299.5881023817821 109.30663443811835 300.1403871316129 109.30663443811835 C 300.6926718814437 109.30663443811835 301.1403871316129 109.75434968828756 301.1403871316129 110.30663443811835 Z" stroke-opacity="1" stroke-linecap="round" stroke-linejoin="round" stroke-miterlimit="10"/><path fill="rgb(21,101,192)" stroke="none" paint-order="stroke fill markers" d=" M 351.4023061059927 311.3543103356386 C 351.4023061059927 311.9065950854694 350.9545908558235 312.3543103356386 350.4023061059927 312.3543103356386 C 349.8500213561619 312.3543103356386 349.4023061059927 311.9065950854694 349.4023061059927 311.3543103356386 C 349.4023061059927 310.8020255858078 349.8500213561619 310.3543103356386 350.4023061059927 310.3543103356386 C 350.9545908558235 310.3543103356386 351.4023061059927 310.8020255858078 351.4023061059927 311.3543103356386 Z" fill-opacity="1"/><path fill="none" stroke="rgb(0,0,0)" paint-order="fill stroke markers" d=" M 351.4023061059927 311.3543103356386 C 351.4023061059927 311.9065950854694 350.9545908558235 312.3543103356386 350.4023061059927 312.3543103356386 C 349.8500213561619 312.3543103356386 349.4023061059927 311.9065950854694 349.4023061059927 311.3543103356386 C 349.4023061059927 310.8020255858078 349.8500213561619 310.3543103356386 350.4023061059927 310.3543103356386 C 350.9545908558235 310.3543103356386 351.4023061059927 310.8020255858078 351.4023061059927 311.3543103356386 Z" stroke-opacity="1" stroke-linecap="round" stroke-linejoin="round" stroke-miterlimit="10"/><path fill="rgb(46,125,50)" stroke="none" paint-order="stroke fill markers" d=" M 301.1403871316129 60.04471546373827 C 301.1403871316129 60.59700021356906 300.6926718814437 61.04471546373827 300.1403871316129 61.04471546373827 C 299.5881023817821 61.04471546373827 299.1403871316129 60.59700021356906 299.1403871316129 60.04471546373827 C 299.1403871316129 59.492430713907474 299.5881023817821 59.04471546373827 300.1403871316129 59.04471546373827 C 300.6926718814437 59.04471546373827 301.1403871316129 59.492430713907474 301.1403871316129 60.04471546373827 Z" fill-opacity="1"/><path fill="none" stroke="rgb(0,0,0)" paint-order="fill stroke markers" d=" M 301.1403871316129 60.04471546373827 C 301.1403871316129 60.59700021356906 300.6926718814437 61.04471546373827 300.1403871316129 61.04471546373827 C 299.5881023817821 61.04471546373827 299.1403871316129 60.59700021356906 299.1403871316129 60.04471546373827 C 299.1403871316129 59.492430713907474 299.5881023817821 59.04471546373827 300.1403871316129 59.04471546373827 C 300.6926718814437 59.04471546373827 301.1403871316129 59.492430713907474 301.1403871316129 60.04471546373827 Z" stroke-opacity="1" stroke-linecap="round" stroke-linejoin="round" stroke-miterlimit="10"/><path fill="rgb(46,125,50)" stroke="none" paint-order="stroke fill markers" d=" M 100.0927112340936 60.04471546373827 C 100.0927112340936 60.59700021356906 99.64499598392439 61.04471546373827 99.0927112340936 61.04471546373827 C 98.54042648426281 61.04471546373827 98.0927112340936 60.59700021356906 98.0927112340936 60.04471546373827 C 98.0927112340936 59.492430713907474 98.54042648426281 59.04471546373827 99.0927112340936 59.04471546373827 C 99.64499598392439 59.04471546373827 100.0927112340936 59.492430713907474 100.0927112340936 60.04471546373827 Z" fill-opacity="1"/><path fill="none" stroke="rgb(0,0,0)" paint-order="fill stroke markers" d=" M 100.0927112340936 60.04471546373827 C 100.0927112340936 60.59700021356906 99.64499598392439 61.04471546373827 99.0927112340936 61.04471546373827 C 98.54042648426281 61.04471546373827 98.0927112340936 60.59700021356906 98.0927112340936 60.04471546373827 C 98.0927112340936 59.492430713907474 98.54042648426281 59.04471546373827 99.0927112340936 59.04471546373827 C 99.64499598392439 59.04471546373827 100.0927112340936 59.492430713907474 100.0927112340936 60.04471546373827 Z" stroke-opacity="1" stroke-linecap="round" stroke-linejoin="round" stroke-miterlimit="10"/><g transform="scale(25,25)"><g transform="translate(7.88,13.911)"><path fill="rgb(0,0,0)" stroke="none" paint-order="stroke fill markers" d=" M 0.10205078125 -0.02880859375 Q 0.11865234375 -0.01513671875 0.14501953125 -0.01513671875 Q 0.17529296875 -0.01513671875 0.19580078125 -0.045166015625 Q 0.21630859375 -0.0751953125 0.22509765625 -0.11083984375 L 0.27001953125 -0.2900390625 Q 0.28076171875 -0.33203125 0.28076171875 -0.35693359375 Q 0.28076171875 -0.38134765625 0.26953125 -0.398681640625 Q 0.25830078125 -0.416015625 0.23583984375 -0.416015625 Q 0.20654296875 -0.416015625 0.18115234375 -0.3955078125 Q 0.15576171875 -0.375 0.13916015625 -0.344482421875 Q 0.12255859375 -0.31396484375 0.115234375 -0.2841796875 Q 0.1123046875 -0.27783203125 0.10693359375 -0.27783203125 L 0.0888671875 -0.27783203125 Q 0.0810546875 -0.27783203125 0.0810546875 -0.287109375 L 0.0810546875 -0.2900390625 Q 0.09033203125 -0.326171875 0.11279296875 -0.361572265625 Q 0.13525390625 -0.39697265625 0.16748046875 -0.41943359375 Q 0.19970703125 -0.44189453125 0.23681640625 -0.44189453125 Q 0.26904296875 -0.44189453125 0.295166015625 -0.4248046875 Q 0.3212890625 -0.40771484375 0.333984375 -0.3779296875 Q 0.3505859375 -0.40576171875 0.375244140625 -0.423828125 Q 0.39990234375 -0.44189453125 0.42822265625 -0.44189453125 Q 0.4453125 -0.44189453125 0.46044921875 -0.43798828125 Q 0.4755859375 -0.43408203125 0.48828125 -0.42578125 Q 0.5009765625 -0.41748046875 0.509033203125 -0.405029296875 Q 0.51708984375 -0.392578125 0.51708984375 -0.375 Q 0.51708984375 -0.3515625 0.502197265625 -0.334716796875 Q 0.4873046875 -0.31787109375 0.4638671875 -0.31787109375 Q 0.44970703125 -0.31787109375 0.439453125 -0.3271484375 Q 0.42919921875 -0.33642578125 0.42919921875 -0.35107421875 Q 0.42919921875 -0.369140625 0.44091796875 -0.38330078125 Q 0.45263671875 -0.3974609375 0.46923828125 -0.40185546875 Q 0.45361328125 -0.416015625 0.42578125 -0.416015625 Q 0.396484375 -0.416015625 0.37548828125 -0.385498046875 Q 0.3544921875 -0.35498046875 0.34619140625 -0.31982421875 L 0.30078125 -0.14111328125 Q 0.29736328125 -0.12451171875 0.293701171875 -0.106201171875 Q 0.2900390625 -0.087890625 0.2900390625 -0.07421875 Q 0.2900390625 -0.05029296875 0.3017578125 -0.03271484375 Q 0.3134765625 -0.01513671875 0.3359375 -0.01513671875 Q 0.36572265625 -0.01513671875 0.390869140625 -0.03564453125 Q 0.416015625 -0.05615234375 0.432373046875 -0.086181640625 Q 0.44873046875 -0.1162109375 0.4560546875 -0.14697265625 Q 0.4580078125 -0.15283203125 0.4638671875 -0.15283203125 L 0.48193359375 -0.15283203125 Q 0.48583984375 -0.15283203125 0.488525390625 -0.150390625 Q 0.4912109375 -0.14794921875 0.4912109375 -0.14404296875 Q 0.4912109375 -0.14306640625 0.490234375 -0.14111328125 Q 0.48095703125 -0.10400390625 0.458984375 -0.06884765625 Q 0.43701171875 -0.03369140625 0.404052734375 -0.01123046875 Q 0.37109375 0.01123046875 0.333984375 0.01123046875 Q 0.3017578125 0.01123046875 0.276123046875 -0.006103515625 Q 0.25048828125 -0.0234375 0.23779296875 -0.05322265625 Q 0.22119140625 -0.025390625 0.197265625 -0.007080078125 Q 0.17333984375 0.01123046875 0.14404296875 0.01123046875 Q 0.10986328125 0.01123046875 0.08251953125 -0.006103515625 Q 0.05517578125 -0.0234375 0.05517578125 -0.05615234375 Q 0.05517578125 -0.0791015625 0.070068359375 -0.095947265625 Q 0.0849609375 -0.11279296875 0.10693359375 -0.11279296875 Q 0.12255859375 -0.11279296875 0.1328125 -0.103759765625 Q 0.14306640625 -0.0947265625 0.14306640625 -0.080078125 Q 0.14306640625 -0.0625 0.13134765625 -0.04833984375 Q 0.11962890625 -0.0341796875 0.10205078125 -0.02880859375 Z"/></g></g><g transform="scale(25,25)"><g transform="translate(2.72,8.790999999999999)"><path fill="rgb(0,0,0)" stroke="none" paint-order="stroke fill markers" d=" M 0.10205078125 -0.02880859375 Q 0.11865234375 -0.01513671875 0.14501953125 -0.01513671875 Q 0.17529296875 -0.01513671875 0.19580078125 -0.045166015625 Q 0.21630859375 -0.0751953125 0.22509765625 -0.11083984375 L 0.27001953125 -0.2900390625 Q 0.28076171875 -0.33203125 0.28076171875 -0.35693359375 Q 0.28076171875 -0.38134765625 0.26953125 -0.398681640625 Q 0.25830078125 -0.416015625 0.23583984375 -0.416015625 Q 0.20654296875 -0.416015625 0.18115234375 -0.3955078125 Q 0.15576171875 -0.375 0.13916015625 -0.344482421875 Q 0.12255859375 -0.31396484375 0.115234375 -0.2841796875 Q 0.1123046875 -0.27783203125 0.10693359375 -0.27783203125 L 0.0888671875 -0.27783203125 Q 0.0810546875 -0.27783203125 0.0810546875 -0.287109375 L 0.0810546875 -0.2900390625 Q 0.09033203125 -0.326171875 0.11279296875 -0.361572265625 Q 0.13525390625 -0.39697265625 0.16748046875 -0.41943359375 Q 0.19970703125 -0.44189453125 0.23681640625 -0.44189453125 Q 0.26904296875 -0.44189453125 0.295166015625 -0.4248046875 Q 0.3212890625 -0.40771484375 0.333984375 -0.3779296875 Q 0.3505859375 -0.40576171875 0.375244140625 -0.423828125 Q 0.39990234375 -0.44189453125 0.42822265625 -0.44189453125 Q 0.4453125 -0.44189453125 0.46044921875 -0.43798828125 Q 0.4755859375 -0.43408203125 0.48828125 -0.42578125 Q 0.5009765625 -0.41748046875 0.509033203125 -0.405029296875 Q 0.51708984375 -0.392578125 0.51708984375 -0.375 Q 0.51708984375 -0.3515625 0.502197265625 -0.334716796875 Q 0.4873046875 -0.31787109375 0.4638671875 -0.31787109375 Q 0.44970703125 -0.31787109375 0.439453125 -0.3271484375 Q 0.42919921875 -0.33642578125 0.42919921875 -0.35107421875 Q 0.42919921875 -0.369140625 0.44091796875 -0.38330078125 Q 0.45263671875 -0.3974609375 0.46923828125 -0.40185546875 Q 0.45361328125 -0.416015625 0.42578125 -0.416015625 Q 0.396484375 -0.416015625 0.37548828125 -0.385498046875 Q 0.3544921875 -0.35498046875 0.34619140625 -0.31982421875 L 0.30078125 -0.14111328125 Q 0.29736328125 -0.12451171875 0.293701171875 -0.106201171875 Q 0.2900390625 -0.087890625 0.2900390625 -0.07421875 Q 0.2900390625 -0.05029296875 0.3017578125 -0.03271484375 Q 0.3134765625 -0.01513671875 0.3359375 -0.01513671875 Q 0.36572265625 -0.01513671875 0.390869140625 -0.03564453125 Q 0.416015625 -0.05615234375 0.432373046875 -0.086181640625 Q 0.44873046875 -0.1162109375 0.4560546875 -0.14697265625 Q 0.4580078125 -0.15283203125 0.4638671875 -0.15283203125 L 0.48193359375 -0.15283203125 Q 0.48583984375 -0.15283203125 0.488525390625 -0.150390625 Q 0.4912109375 -0.14794921875 0.4912109375 -0.14404296875 Q 0.4912109375 -0.14306640625 0.490234375 -0.14111328125 Q 0.48095703125 -0.10400390625 0.458984375 -0.06884765625 Q 0.43701171875 -0.03369140625 0.404052734375 -0.01123046875 Q 0.37109375 0.01123046875 0.333984375 0.01123046875 Q 0.3017578125 0.01123046875 0.276123046875 -0.006103515625 Q 0.25048828125 -0.0234375 0.23779296875 -0.05322265625 Q 0.22119140625 -0.025390625 0.197265625 -0.007080078125 Q 0.17333984375 0.01123046875 0.14404296875 0.01123046875 Q 0.10986328125 0.01123046875 0.08251953125 -0.006103515625 Q 0.05517578125 -0.0234375 0.05517578125 -0.05615234375 Q 0.05517578125 -0.0791015625 0.070068359375 -0.095947265625 Q 0.0849609375 -0.11279296875 0.10693359375 -0.11279296875 Q 0.12255859375 -0.11279296875 0.1328125 -0.103759765625 Q 0.14306640625 -0.0947265625 0.14306640625 -0.080078125 Q 0.14306640625 -0.0625 0.13134765625 -0.04833984375 Q 0.11962890625 -0.0341796875 0.10205078125 -0.02880859375 Z"/></g></g><g transform="scale(25,25)"><g transform="translate(14.52,8.831)"><path fill="rgb(0,0,0)" stroke="none" paint-order="stroke fill markers" d=" M 0.10205078125 -0.02880859375 Q 0.11865234375 -0.01513671875 0.14501953125 -0.01513671875 Q 0.17529296875 -0.01513671875 0.19580078125 -0.045166015625 Q 0.21630859375 -0.0751953125 0.22509765625 -0.11083984375 L 0.27001953125 -0.2900390625 Q 0.28076171875 -0.33203125 0.28076171875 -0.35693359375 Q 0.28076171875 -0.38134765625 0.26953125 -0.398681640625 Q 0.25830078125 -0.416015625 0.23583984375 -0.416015625 Q 0.20654296875 -0.416015625 0.18115234375 -0.3955078125 Q 0.15576171875 -0.375 0.13916015625 -0.344482421875 Q 0.12255859375 -0.31396484375 0.115234375 -0.2841796875 Q 0.1123046875 -0.27783203125 0.10693359375 -0.27783203125 L 0.0888671875 -0.27783203125 Q 0.0810546875 -0.27783203125 0.0810546875 -0.287109375 L 0.0810546875 -0.2900390625 Q 0.09033203125 -0.326171875 0.11279296875 -0.361572265625 Q 0.13525390625 -0.39697265625 0.16748046875 -0.41943359375 Q 0.19970703125 -0.44189453125 0.23681640625 -0.44189453125 Q 0.26904296875 -0.44189453125 0.295166015625 -0.4248046875 Q 0.3212890625 -0.40771484375 0.333984375 -0.3779296875 Q 0.3505859375 -0.40576171875 0.375244140625 -0.423828125 Q 0.39990234375 -0.44189453125 0.42822265625 -0.44189453125 Q 0.4453125 -0.44189453125 0.46044921875 -0.43798828125 Q 0.4755859375 -0.43408203125 0.48828125 -0.42578125 Q 0.5009765625 -0.41748046875 0.509033203125 -0.405029296875 Q 0.51708984375 -0.392578125 0.51708984375 -0.375 Q 0.51708984375 -0.3515625 0.502197265625 -0.334716796875 Q 0.4873046875 -0.31787109375 0.4638671875 -0.31787109375 Q 0.44970703125 -0.31787109375 0.439453125 -0.3271484375 Q 0.42919921875 -0.33642578125 0.42919921875 -0.35107421875 Q 0.42919921875 -0.369140625 0.44091796875 -0.38330078125 Q 0.45263671875 -0.3974609375 0.46923828125 -0.40185546875 Q 0.45361328125 -0.416015625 0.42578125 -0.416015625 Q 0.396484375 -0.416015625 0.37548828125 -0.385498046875 Q 0.3544921875 -0.35498046875 0.34619140625 -0.31982421875 L 0.30078125 -0.14111328125 Q 0.29736328125 -0.12451171875 0.293701171875 -0.106201171875 Q 0.2900390625 -0.087890625 0.2900390625 -0.07421875 Q 0.2900390625 -0.05029296875 0.3017578125 -0.03271484375 Q 0.3134765625 -0.01513671875 0.3359375 -0.01513671875 Q 0.36572265625 -0.01513671875 0.390869140625 -0.03564453125 Q 0.416015625 -0.05615234375 0.432373046875 -0.086181640625 Q 0.44873046875 -0.1162109375 0.4560546875 -0.14697265625 Q 0.4580078125 -0.15283203125 0.4638671875 -0.15283203125 L 0.48193359375 -0.15283203125 Q 0.48583984375 -0.15283203125 0.488525390625 -0.150390625 Q 0.4912109375 -0.14794921875 0.4912109375 -0.14404296875 Q 0.4912109375 -0.14306640625 0.490234375 -0.14111328125 Q 0.48095703125 -0.10400390625 0.458984375 -0.06884765625 Q 0.43701171875 -0.03369140625 0.404052734375 -0.01123046875 Q 0.37109375 0.01123046875 0.333984375 0.01123046875 Q 0.3017578125 0.01123046875 0.276123046875 -0.006103515625 Q 0.25048828125 -0.0234375 0.23779296875 -0.05322265625 Q 0.22119140625 -0.025390625 0.197265625 -0.007080078125 Q 0.17333984375 0.01123046875 0.14404296875 0.01123046875 Q 0.10986328125 0.01123046875 0.08251953125 -0.006103515625 Q 0.05517578125 -0.0234375 0.05517578125 -0.05615234375 Q 0.05517578125 -0.0791015625 0.070068359375 -0.095947265625 Q 0.0849609375 -0.11279296875 0.10693359375 -0.11279296875 Q 0.12255859375 -0.11279296875 0.1328125 -0.103759765625 Q 0.14306640625 -0.0947265625 0.14306640625 -0.080078125 Q 0.14306640625 -0.0625 0.13134765625 -0.04833984375 Q 0.11962890625 -0.0341796875 0.10205078125 -0.02880859375 Z"/></g></g><g transform="scale(19,19)"><g transform="translate(17.045790358519998,17.588736842105263)"><path fill="rgb(0,0,0)" stroke="none" paint-order="stroke fill markers" d=" M 0.23900000000000002 -0.683 L 0.165 -0.382 Q 0.223 -0.442 0.28200000000000003 -0.442 Q 0.357 -0.442 0.394 -0.373 Q 0.41500000000000004 -0.333 0.41500000000000004 -0.28200000000000003 Q 0.41500000000000004 -0.176 0.341 -0.084 Q 0.272 0.001 0.189 0.01 Q 0.181 0.011 0.17400000000000002 0.011 Q 0.10200000000000001 0.011 0.067 -0.056 Q 0.047 -0.094 0.047 -0.146 Q 0.047 -0.18 0.063 -0.247 L 0.145 -0.5730000000000001 Q 0.159 -0.632 0.159 -0.635 Q 0.159 -0.646 0.145 -0.649 L 0.145 -0.649 Q 0.133 -0.652 0.109 -0.652 Q 0.08700000000000001 -0.652 0.085 -0.664 Q 0.085 -0.681 0.10400000000000001 -0.684 L 0.226 -0.6940000000000001 Q 0.23900000000000002 -0.6940000000000001 0.23900000000000002 -0.683 M 0.145 -0.305 L 0.123 -0.213 Q 0.107 -0.15 0.107 -0.112 Q 0.107 -0.026000000000000002 0.159 -0.013000000000000001 Q 0.166 -0.011 0.17400000000000002 -0.011 Q 0.227 -0.011 0.273 -0.081 Q 0.28300000000000003 -0.096 0.292 -0.114 Q 0.319 -0.171 0.337 -0.268 Q 0.343 -0.303 0.343 -0.326 Q 0.343 -0.406 0.294 -0.418 L 0.293 -0.419 Q 0.28700000000000003 -0.42 0.28 -0.42 Q 0.22 -0.42 0.16 -0.34 Q 0.152 -0.33 0.145 -0.305 Z"/></g><rect fill="rgb(0,0,0)" stroke="none" x="17.01029035852" y="17.995245342105264" width="0.5" height="0.039999"/><g transform="translate(17.01029035852,18.951195842105264)"><path fill="rgb(0,0,0)" stroke="none" paint-order="stroke fill markers" d=" M 0.449 -0.17400000000000002 L 0.449 -0.17400000000000002 L 0.421 0 L 0.05 0 Q 0.05 -0.025 0.056 -0.032 L 0.061 -0.037 L 0.253 -0.251 Q 0.358 -0.369 0.358 -0.47200000000000003 Q 0.358 -0.561 0.304 -0.607 L 0.303 -0.608 L 0.302 -0.608 Q 0.27 -0.635 0.224 -0.635 Q 0.152 -0.635 0.109 -0.5730000000000001 Q 0.097 -0.555 0.089 -0.533 Q 0.092 -0.534 0.10200000000000001 -0.534 Q 0.14200000000000002 -0.534 0.153 -0.498 L 0.153 -0.497 Q 0.155 -0.49 0.155 -0.482 Q 0.155 -0.442 0.117 -0.431 Q 0.109 -0.429 0.10300000000000001 -0.429 Q 0.066 -0.429 0.054 -0.46 Q 0.05 -0.47100000000000003 0.05 -0.485 Q 0.05 -0.562 0.109 -0.617 Q 0.162 -0.666 0.23700000000000002 -0.666 Q 0.34700000000000003 -0.666 0.40800000000000003 -0.592 Q 0.443 -0.549 0.448 -0.49 Q 0.449 -0.481 0.449 -0.47200000000000003 Q 0.449 -0.399 0.394 -0.333 Q 0.365 -0.299 0.304 -0.243 L 0.243 -0.189 L 0.233 -0.18 L 0.127 -0.077 L 0.307 -0.077 Q 0.395 -0.077 0.402 -0.085 Q 0.41200000000000003 -0.099 0.424 -0.17400000000000002 L 0.449 -0.17400000000000002 Z"/></g></g><g transform="scale(25,25)"><g transform="translate(7.84,1.951)"><path fill="rgb(0,0,0)" stroke="none" paint-order="stroke fill markers" d=" M 0.10205078125 -0.02880859375 Q 0.11865234375 -0.01513671875 0.14501953125 -0.01513671875 Q 0.17529296875 -0.01513671875 0.19580078125 -0.045166015625 Q 0.21630859375 -0.0751953125 0.22509765625 -0.11083984375 L 0.27001953125 -0.2900390625 Q 0.28076171875 -0.33203125 0.28076171875 -0.35693359375 Q 0.28076171875 -0.38134765625 0.26953125 -0.398681640625 Q 0.25830078125 -0.416015625 0.23583984375 -0.416015625 Q 0.20654296875 -0.416015625 0.18115234375 -0.3955078125 Q 0.15576171875 -0.375 0.13916015625 -0.344482421875 Q 0.12255859375 -0.31396484375 0.115234375 -0.2841796875 Q 0.1123046875 -0.27783203125 0.10693359375 -0.27783203125 L 0.0888671875 -0.27783203125 Q 0.0810546875 -0.27783203125 0.0810546875 -0.287109375 L 0.0810546875 -0.2900390625 Q 0.09033203125 -0.326171875 0.11279296875 -0.361572265625 Q 0.13525390625 -0.39697265625 0.16748046875 -0.41943359375 Q 0.19970703125 -0.44189453125 0.23681640625 -0.44189453125 Q 0.26904296875 -0.44189453125 0.295166015625 -0.4248046875 Q 0.3212890625 -0.40771484375 0.333984375 -0.3779296875 Q 0.3505859375 -0.40576171875 0.375244140625 -0.423828125 Q 0.39990234375 -0.44189453125 0.42822265625 -0.44189453125 Q 0.4453125 -0.44189453125 0.46044921875 -0.43798828125 Q 0.4755859375 -0.43408203125 0.48828125 -0.42578125 Q 0.5009765625 -0.41748046875 0.509033203125 -0.405029296875 Q 0.51708984375 -0.392578125 0.51708984375 -0.375 Q 0.51708984375 -0.3515625 0.502197265625 -0.334716796875 Q 0.4873046875 -0.31787109375 0.4638671875 -0.31787109375 Q 0.44970703125 -0.31787109375 0.439453125 -0.3271484375 Q 0.42919921875 -0.33642578125 0.42919921875 -0.35107421875 Q 0.42919921875 -0.369140625 0.44091796875 -0.38330078125 Q 0.45263671875 -0.3974609375 0.46923828125 -0.40185546875 Q 0.45361328125 -0.416015625 0.42578125 -0.416015625 Q 0.396484375 -0.416015625 0.37548828125 -0.385498046875 Q 0.3544921875 -0.35498046875 0.34619140625 -0.31982421875 L 0.30078125 -0.14111328125 Q 0.29736328125 -0.12451171875 0.293701171875 -0.106201171875 Q 0.2900390625 -0.087890625 0.2900390625 -0.07421875 Q 0.2900390625 -0.05029296875 0.3017578125 -0.03271484375 Q 0.3134765625 -0.01513671875 0.3359375 -0.01513671875 Q 0.36572265625 -0.01513671875 0.390869140625 -0.03564453125 Q 0.416015625 -0.05615234375 0.432373046875 -0.086181640625 Q 0.44873046875 -0.1162109375 0.4560546875 -0.14697265625 Q 0.4580078125 -0.15283203125 0.4638671875 -0.15283203125 L 0.48193359375 -0.15283203125 Q 0.48583984375 -0.15283203125 0.488525390625 -0.150390625 Q 0.4912109375 -0.14794921875 0.4912109375 -0.14404296875 Q 0.4912109375 -0.14306640625 0.490234375 -0.14111328125 Q 0.48095703125 -0.10400390625 0.458984375 -0.06884765625 Q 0.43701171875 -0.03369140625 0.404052734375 -0.01123046875 Q 0.37109375 0.01123046875 0.333984375 0.01123046875 Q 0.3017578125 0.01123046875 0.276123046875 -0.006103515625 Q 0.25048828125 -0.0234375 0.23779296875 -0.05322265625 Q 0.22119140625 -0.025390625 0.197265625 -0.007080078125 Q 0.17333984375 0.01123046875 0.14404296875 0.01123046875 Q 0.10986328125 0.01123046875 0.08251953125 -0.006103515625 Q 0.05517578125 -0.0234375 0.05517578125 -0.05615234375 Q 0.05517578125 -0.0791015625 0.070068359375 -0.095947265625 Q 0.0849609375 -0.11279296875 0.10693359375 -0.11279296875 Q 0.12255859375 -0.11279296875 0.1328125 -0.103759765625 Q 0.14306640625 -0.0947265625 0.14306640625 -0.080078125 Q 0.14306640625 -0.0625 0.13134765625 -0.04833984375 Q 0.11962890625 -0.0341796875 0.10205078125 -0.02880859375 Z"/></g></g><g transform="scale(19,19)"><g transform="translate(3.7300008848357895,4.167684210526316)"><path fill="rgb(0,0,0)" stroke="none" paint-order="stroke fill markers" d=" M 0.23900000000000002 -0.683 L 0.165 -0.382 Q 0.223 -0.442 0.28200000000000003 -0.442 Q 0.357 -0.442 0.394 -0.373 Q 0.41500000000000004 -0.333 0.41500000000000004 -0.28200000000000003 Q 0.41500000000000004 -0.176 0.341 -0.084 Q 0.272 0.001 0.189 0.01 Q 0.181 0.011 0.17400000000000002 0.011 Q 0.10200000000000001 0.011 0.067 -0.056 Q 0.047 -0.094 0.047 -0.146 Q 0.047 -0.18 0.063 -0.247 L 0.145 -0.5730000000000001 Q 0.159 -0.632 0.159 -0.635 Q 0.159 -0.646 0.145 -0.649 L 0.145 -0.649 Q 0.133 -0.652 0.109 -0.652 Q 0.08700000000000001 -0.652 0.085 -0.664 Q 0.085 -0.681 0.10400000000000001 -0.684 L 0.226 -0.6940000000000001 Q 0.23900000000000002 -0.6940000000000001 0.23900000000000002 -0.683 M 0.145 -0.305 L 0.123 -0.213 Q 0.107 -0.15 0.107 -0.112 Q 0.107 -0.026000000000000002 0.159 -0.013000000000000001 Q 0.166 -0.011 0.17400000000000002 -0.011 Q 0.227 -0.011 0.273 -0.081 Q 0.28300000000000003 -0.096 0.292 -0.114 Q 0.319 -0.171 0.337 -0.268 Q 0.343 -0.303 0.343 -0.326 Q 0.343 -0.406 0.294 -0.418 L 0.293 -0.419 Q 0.28700000000000003 -0.42 0.28 -0.42 Q 0.22 -0.42 0.16 -0.34 Q 0.152 -0.33 0.145 -0.305 Z"/></g><rect fill="rgb(0,0,0)" stroke="none" x="3.6945008848357896" y="4.574192710526316" width="0.5" height="0.039999"/><g transform="translate(3.6945008848357896,5.530143210526316)"><path fill="rgb(0,0,0)" stroke="none" paint-order="stroke fill markers" d=" M 0.449 -0.17400000000000002 L 0.449 -0.17400000000000002 L 0.421 0 L 0.05 0 Q 0.05 -0.025 0.056 -0.032 L 0.061 -0.037 L 0.253 -0.251 Q 0.358 -0.369 0.358 -0.47200000000000003 Q 0.358 -0.561 0.304 -0.607 L 0.303 -0.608 L 0.302 -0.608 Q 0.27 -0.635 0.224 -0.635 Q 0.152 -0.635 0.109 -0.5730000000000001 Q 0.097 -0.555 0.089 -0.533 Q 0.092 -0.534 0.10200000000000001 -0.534 Q 0.14200000000000002 -0.534 0.153 -0.498 L 0.153 -0.497 Q 0.155 -0.49 0.155 -0.482 Q 0.155 -0.442 0.117 -0.431 Q 0.109 -0.429 0.10300000000000001 -0.429 Q 0.066 -0.429 0.054 -0.46 Q 0.05 -0.47100000000000003 0.05 -0.485 Q 0.05 -0.562 0.109 -0.617 Q 0.162 -0.666 0.23700000000000002 -0.666 Q 0.34700000000000003 -0.666 0.40800000000000003 -0.592 Q 0.443 -0.549 0.448 -0.49 Q 0.449 -0.481 0.449 -0.47200000000000003 Q 0.449 -0.399 0.394 -0.333 Q 0.365 -0.299 0.304 -0.243 L 0.243 -0.189 L 0.233 -0.18 L 0.127 -0.077 L 0.307 -0.077 Q 0.395 -0.077 0.402 -0.085 Q 0.41200000000000003 -0.099 0.424 -0.17400000000000002 L 0.449 -0.17400000000000002 Z"/></g></g></g></g></svg>