<svg version="1.1" xmlns="http://www.w3.org/2000/svg" xmlns:xlink="http://www.w3.org/1999/xlink" width="444" height="309"><defs><clipPath id="CCdpaJGQsMJA"><path fill="none" stroke="none" d=" M 0 0 L 444 0 L 444 309 L 0 309 L 0 0 Z"/></clipPath></defs><g transform="scale(1,1)" clip-path="url(#CCdpaJGQsMJA)"><g><rect fill="rgb(255,255,255)" stroke="none" x="0" y="0" width="444" height="309" fill-opacity="1"/><path fill="rgb(21,101,192)" stroke="none" paint-order="stroke fill markers" fill-rule="evenodd" d=" M 69.48868749735581 232.59365708712377 L 275.3748867457567 232.59365708712377 L 275.3748867457567 26.707457838721922 L 69.48868749735584 26.707457838721865 Z" fill-opacity="0.2"/><path fill="none" stroke="rgb(21,101,192)" paint-order="fill stroke markers" d=" M 69.48868749735581 232.59365708712377 L 275.3748867457567 232.59365708712377 L 275.3748867457567 26.707457838721922 L 69.48868749735584 26.707457838721865 Z" stroke-opacity="0.8" stroke-linecap="round" stroke-linejoin="round" stroke-miterlimit="10" stroke-width="2.5"/><path fill="rgb(211,47,47)" stroke="none" paint-order="stroke fill markers" fill-rule="evenodd" d=" M 326.84643655785703 232.59365708712377 L 378.3179863699572 232.59365708712377 L 378.3179863699572 26.707457838721865 L 326.84643655785703 26.707457838721865 Z" fill-opacity="0.2"/><path fill="rgb(211,47,47)" stroke="none" paint-order="stroke fill markers" fill-rule="evenodd" d=" M 223.9033369336565 232.59365708712377 L 223.9033369336565 26.707457838721893 L 275.3748867457567 26.707457838721922 L 275.3748867457567 232.59365708712377 Z" fill-opacity="0.2"/><path fill="none" stroke="rgb(21,101,192)" paint-order="fill stroke markers" d=" M 69.48868749735581 232.59365708712377 L 275.3748867457567 232.59365708712377" stroke-opacity="0.8" stroke-linecap="round" stroke-linejoin="round" stroke-miterlimit="10" stroke-width="2.5"/><path fill="none" stroke="rgb(21,101,192)" paint-order="fill stroke markers" d=" M 275.3748867457567 232.59365708712377 L 275.3748867457567 26.707457838721922" stroke-opacity="0.8" stroke-linecap="round" stroke-linejoin="round" stroke-miterlimit="10" stroke-width="2.5"/><path fill="none" stroke="rgb(21,101,192)" paint-order="fill stroke markers" d=" M 275.3748867457567 26.707457838721922 L 69.48868749735584 26.707457838721865" stroke-opacity="0.8" stroke-linecap="round" stroke-linejoin="round" stroke-miterlimit="10" stroke-width="2.5"/><path fill="none" stroke="rgb(21,101,192)" paint-order="fill stroke markers" d=" M 69.48868749735584 26.707457838721865 L 69.48868749735581 232.59365708712377" stroke-opacity="0.8" stroke-linecap="round" stroke-linejoin="round" stroke-miterlimit="10" stroke-width="2.5"/><path fill="none" stroke="rgb(211,47,47)" paint-order="fill stroke markers" d=" M 326.84643655785703 232.59365708712377 L 378.3179863699572 232.59365708712377" stroke-opacity="0.8" stroke-linecap="round" stroke-linejoin="round" stroke-miterlimit="10" stroke-width="2.5"/><path fill="none" stroke="rgb(211,47,47)" paint-order="fill stroke markers" d=" M 378.3179863699572 232.59365708712377 L 378.3179863699572 26.707457838721865" stroke-opacity="0.8" stroke-linecap="round" stroke-linejoin="round" stroke-miterlimit="10" stroke-width="2.5"/><path fill="none" stroke="rgb(211,47,47)" paint-order="fill stroke markers" d=" M 378.3179863699572 26.707457838721865 L 326.84643655785703 26.707457838721865" stroke-opacity="0.8" stroke-linecap="round" stroke-linejoin="round" stroke-miterlimit="10" stroke-width="2.5"/><path fill="none" stroke="rgb(211,47,47)" paint-order="fill stroke markers" d=" M 326.84643655785703 26.707457838721865 L 326.84643655785703 232.59365708712377" stroke-opacity="0.8" stroke-linecap="round" stroke-linejoin="round" stroke-miterlimit="10" stroke-width="2.5"/><path fill="none" stroke="rgb(211,47,47)" paint-order="fill stroke markers" d=" M 223.9033369336565 232.59365708712377 L 223.9033369336565 26.707457838721893" stroke-opacity="0.8" stroke-linecap="round" stroke-linejoin="round" stroke-miterlimit="10" stroke-width="2.5"/><path fill="none" stroke="rgb(211,47,47)" paint-order="fill stroke markers" d=" M 223.9033369336565 26.707457838721893 L 275.3748867457567 26.707457838721922" stroke-opacity="0.8" stroke-linecap="round" stroke-linejoin="round" stroke-miterlimit="10" stroke-width="2.5"/><path fill="none" stroke="rgb(211,47,47)" paint-order="fill stroke markers" d=" M 275.3748867457567 26.707457838721922 L 275.3748867457567 232.59365708712377" stroke-opacity="0.8" stroke-linecap="round" stroke-linejoin="round" stroke-miterlimit="10" stroke-width="2.5"/><path fill="none" stroke="rgb(211,47,47)" paint-order="fill stroke markers" d=" M 275.3748867457567 232.59365708712377 L 223.9033369336565 232.59365708712377" stroke-opacity="0.8" stroke-linecap="round" stroke-linejoin="round" stroke-miterlimit="10" stroke-width="2.5"/><path fill="rgb(46,125,50)" stroke="none" paint-order="stroke fill markers" d=" M 70.48868749735581 232.59365708712377 C 70.48868749735581 233.14594183695456 70.0409722471866 233.59365708712377 69.48868749735581 233.59365708712377 C 68.93640274752502 233.59365708712377 68.48868749735581 233.14594183695456 68.48868749735581 232.59365708712377 C 68.48868749735581 232.04137233729298 68.93640274752502 231.59365708712377 69.48868749735581 231.59365708712377 C 70.0409722471866 231.59365708712377 70.48868749735581 232.04137233729298 70.48868749735581 232.59365708712377 Z" fill-opacity="1"/><path fill="none" stroke="rgb(0,0,0)" paint-order="fill stroke markers" d=" M 70.48868749735581 232.59365708712377 C 70.48868749735581 233.14594183695456 70.0409722471866 233.59365708712377 69.48868749735581 233.59365708712377 C 68.93640274752502 233.59365708712377 68.48868749735581 233.14594183695456 68.48868749735581 232.59365708712377 C 68.48868749735581 232.04137233729298 68.93640274752502 231.59365708712377 69.48868749735581 231.59365708712377 C 70.0409722471866 231.59365708712377 70.48868749735581 232.04137233729298 70.48868749735581 232.59365708712377 Z" stroke-opacity="1" stroke-linecap="round" stroke-linejoin="round" stroke-miterlimit="10"/><path fill="rgb(21,101,192)" stroke="none" paint-order="stroke fill markers" d=" M 276.3748867457567 232.59365708712377 C 276.3748867457567 233.14594183695456 275.9271714955875 233.59365708712377 275.3748867457567 233.59365708712377 C 274.82260199592594 233.59365708712377 274.3748867457567 233.14594183695456 274.3748867457567 232.59365708712377 C 274.3748867457567 232.04137233729298 274.82260199592594 231.59365708712377 275.3748867457567 231.59365708712377 C 275.9271714955875 231.59365708712377 276.3748867457567 232.04137233729298 276.3748867457567 232.59365708712377 Z" fill-opacity="1"/><path fill="none" stroke="rgb(0,0,0)" paint-order="fill stroke markers" d=" M 276.3748867457567 232.59365708712377 C 276.3748867457567 233.14594183695456 275.9271714955875 233.59365708712377 275.3748867457567 233.59365708712377 C 274.82260199592594 233.59365708712377 274.3748867457567 233.14594183695456 274.3748867457567 232.59365708712377 C 274.3748867457567 232.04137233729298 274.82260199592594 231.59365708712377 275.3748867457567 231.59365708712377 C 275.9271714955875 231.59365708712377 276.3748867457567 232.04137233729298 276.3748867457567 232.59365708712377 Z" stroke-opacity="1" stroke-linecap="round" stroke-linejoin="round" stroke-miterlimit="10"/><path fill="rgb(46,125,50)" stroke="none" paint-order="stroke fill markers" d=" M 276.3748867457567 26.707457838721922 C 276.3748867457567 27.259742588552715 275.9271714955875 27.707457838721922 275.3748867457567 27.707457838721922 C 274.82260199592594 27.707457838721922 274.3748867457567 27.259742588552715 274.3748867457567 26.707457838721922 C 274.3748867457567 26.15517308889113 274.82260199592594 25.707457838721922 275.3748867457567 25.707457838721922 C 275.9271714955875 25.707457838721922 276.3748867457567 26.15517308889113 276.3748867457567 26.707457838721922 Z" fill-opacity="1"/><path fill="none" stroke="rgb(0,0,0)" paint-order="fill stroke markers" d=" M 276.3748867457567 26.707457838721922 C 276.3748867457567 27.259742588552715 275.9271714955875 27.707457838721922 275.3748867457567 27.707457838721922 C 274.82260199592594 27.707457838721922 274.3748867457567 27.259742588552715 274.3748867457567 26.707457838721922 C 274.3748867457567 26.15517308889113 274.82260199592594 25.707457838721922 275.3748867457567 25.707457838721922 C 275.9271714955875 25.707457838721922 276.3748867457567 26.15517308889113 276.3748867457567 26.707457838721922 Z" stroke-opacity="1" stroke-linecap="round" stroke-linejoin="round" stroke-miterlimit="10"/><path fill="rgb(46,125,50)" stroke="none" paint-order="stroke fill markers" d=" M 70.48868749735584 26.707457838721865 C 70.48868749735584 27.25974258855266 70.04097224718663 27.707457838721865 69.48868749735584 27.707457838721865 C 68.93640274752505 27.707457838721865 68.48868749735584 27.25974258855266 68.48868749735584 26.707457838721865 C 68.48868749735584 26.155173088891072 68.93640274752505 25.707457838721865 69.48868749735584 25.707457838721865 C 70.04097224718663 25.707457838721865 70.48868749735584 26.155173088891072 70.48868749735584 26.707457838721865 Z" fill-opacity="1"/><path fill="none" stroke="rgb(0,0,0)" paint-order="fill stroke markers" d=" M 70.48868749735584 26.707457838721865 C 70.48868749735584 27.25974258855266 70.04097224718663 27.707457838721865 69.48868749735584 27.707457838721865 C 68.93640274752505 27.707457838721865 68.48868749735584 27.25974258855266 68.48868749735584 26.707457838721865 C 68.48868749735584 26.155173088891072 68.93640274752505 25.707457838721865 69.48868749735584 25.707457838721865 C 70.04097224718663 25.707457838721865 70.48868749735584 26.155173088891072 70.48868749735584 26.707457838721865 Z" stroke-opacity="1" stroke-linecap="round" stroke-linejoin="round" stroke-miterlimit="10"/><path fill="rgb(21,101,192)" stroke="none" paint-order="stroke fill markers" d=" M 379.3179863699572 26.707457838721865 C 379.3179863699572 27.25974258855266 378.870271119788 27.707457838721865 378.3179863699572 27.707457838721865 C 377.76570162012644 27.707457838721865 377.3179863699572 27.25974258855266 377.3179863699572 26.707457838721865 C 377.3179863699572 26.155173088891072 377.76570162012644 25.707457838721865 378.3179863699572 25.707457838721865 C 378.870271119788 25.707457838721865 379.3179863699572 26.155173088891072 379.3179863699572 26.707457838721865 Z" fill-opacity="1"/><path fill="none" stroke="rgb(0,0,0)" paint-order="fill stroke markers" d=" M 379.3179863699572 26.707457838721865 C 379.3179863699572 27.25974258855266 378.870271119788 27.707457838721865 378.3179863699572 27.707457838721865 C 377.76570162012644 27.707457838721865 377.3179863699572 27.25974258855266 377.3179863699572 26.707457838721865 C 377.3179863699572 26.155173088891072 377.76570162012644 25.707457838721865 378.3179863699572 25.707457838721865 C 378.870271119788 25.707457838721865 379.3179863699572 26.155173088891072 379.3179863699572 26.707457838721865 Z" stroke-opacity="1" stroke-linecap="round" stroke-linejoin="round" stroke-miterlimit="10"/><path fill="rgb(21,101,192)" stroke="none" paint-order="stroke fill markers" d=" M 327.84643655785703 232.59365708712377 C 327.84643655785703 233.14594183695456 327.3987213076878 233.59365708712377 326.84643655785703 233.59365708712377 C 326.29415180802624 233.59365708712377 325.84643655785703 233.14594183695456 325.84643655785703 232.59365708712377 C 325.84643655785703 232.04137233729298 326.29415180802624 231.59365708712377 326.84643655785703 231.59365708712377 C 327.3987213076878 231.59365708712377 327.84643655785703 232.04137233729298 327.84643655785703 232.59365708712377 Z" fill-opacity="1"/><path fill="none" stroke="rgb(0,0,0)" paint-order="fill stroke markers" d=" M 327.84643655785703 232.59365708712377 C 327.84643655785703 233.14594183695456 327.3987213076878 233.59365708712377 326.84643655785703 233.59365708712377 C 326.29415180802624 233.59365708712377 325.84643655785703 233.14594183695456 325.84643655785703 232.59365708712377 C 325.84643655785703 232.04137233729298 326.29415180802624 231.59365708712377 326.84643655785703 231.59365708712377 C 327.3987213076878 231.59365708712377 327.84643655785703 232.04137233729298 327.84643655785703 232.59365708712377 Z" stroke-opacity="1" stroke-linecap="round" stroke-linejoin="round" stroke-miterlimit="10"/><path fill="rgb(21,101,192)" stroke="none" paint-order="stroke fill markers" d=" M 327.84643655785703 26.707457838721865 C 327.84643655785703 27.25974258855266 327.3987213076878 27.707457838721865 326.84643655785703 27.707457838721865 C 326.29415180802624 27.707457838721865 325.84643655785703 27.25974258855266 325.84643655785703 26.707457838721865 C 325.84643655785703 26.155173088891072 326.29415180802624 25.707457838721865 326.84643655785703 25.707457838721865 C 327.3987213076878 25.707457838721865 327.84643655785703 26.155173088891072 327.84643655785703 26.707457838721865 Z" fill-opacity="1"/><path fill="none" stroke="rgb(0,0,0)" paint-order="fill stroke markers" d=" M 327.84643655785703 26.707457838721865 C 327.84643655785703 27.25974258855266 327.3987213076878 27.707457838721865 326.84643655785703 27.707457838721865 C 326.29415180802624 27.707457838721865 325.84643655785703 27.25974258855266 325.84643655785703 26.707457838721865 C 325.84643655785703 26.155173088891072 326.29415180802624 25.707457838721865 326.84643655785703 25.707457838721865 C 327.3987213076878 25.707457838721865 327.84643655785703 26.155173088891072 327.84643655785703 26.707457838721865 Z" stroke-opacity="1" stroke-linecap="round" stroke-linejoin="round" stroke-miterlimit="10"/><path fill="rgb(21,101,192)" stroke="none" paint-order="stroke fill markers" d=" M 379.3179863699572 232.59365708712377 C 379.3179863699572 233.14594183695456 378.870271119788 233.59365708712377 378.3179863699572 233.59365708712377 C 377.76570162012644 233.59365708712377 377.3179863699572 233.14594183695456 377.3179863699572 232.59365708712377 C 377.3179863699572 232.04137233729298 377.76570162012644 231.59365708712377 378.3179863699572 231.59365708712377 C 378.870271119788 231.59365708712377 379.3179863699572 232.04137233729298 379.3179863699572 232.59365708712377 Z" fill-opacity="1"/><path fill="none" stroke="rgb(0,0,0)" paint-order="fill stroke markers" d=" M 379.3179863699572 232.59365708712377 C 379.3179863699572 233.14594183695456 378.870271119788 233.59365708712377 378.3179863699572 233.59365708712377 C 377.76570162012644 233.59365708712377 377.3179863699572 233.14594183695456 377.3179863699572 232.59365708712377 C 377.3179863699572 232.04137233729298 377.76570162012644 231.59365708712377 378.3179863699572 231.59365708712377 C 378.870271119788 231.59365708712377 379.3179863699572 232.04137233729298 379.3179863699572 232.59365708712377 Z" stroke-opacity="1" stroke-linecap="round" stroke-linejoin="round" stroke-miterlimit="10"/><path fill="rgb(21,101,192)" stroke="none" paint-order="stroke fill markers" d=" M 224.9033369336565 232.59365708712377 C 224.9033369336565 233.14594183695456 224.4556216834873 233.59365708712377 223.9033369336565 233.59365708712377 C 223.35105218382571 233.59365708712377 222.9033369336565 233.14594183695456 222.9033369336565 232.59365708712377 C 222.9033369336565 232.04137233729298 223.35105218382571 231.59365708712377 223.9033369336565 231.59365708712377 C 224.4556216834873 231.59365708712377 224.9033369336565 232.04137233729298 224.9033369336565 232.59365708712377 Z" fill-opacity="1"/><path fill="none" stroke="rgb(0,0,0)" paint-order="fill stroke markers" d=" M 224.9033369336565 232.59365708712377 C 224.9033369336565 233.14594183695456 224.4556216834873 233.59365708712377 223.9033369336565 233.59365708712377 C 223.35105218382571 233.59365708712377 222.9033369336565 233.14594183695456 222.9033369336565 232.59365708712377 C 222.9033369336565 232.04137233729298 223.35105218382571 231.59365708712377 223.9033369336565 231.59365708712377 C 224.4556216834873 231.59365708712377 224.9033369336565 232.04137233729298 224.9033369336565 232.59365708712377 Z" stroke-opacity="1" stroke-linecap="round" stroke-linejoin="round" stroke-miterlimit="10"/><path fill="rgb(21,101,192)" stroke="none" paint-order="stroke fill markers" d=" M 224.9033369336565 26.707457838721893 C 224.9033369336565 27.259742588552687 224.4556216834873 27.707457838721893 223.9033369336565 27.707457838721893 C 223.35105218382571 27.707457838721893 222.9033369336565 27.259742588552687 222.9033369336565 26.707457838721893 C 222.9033369336565 26.1551730888911 223.35105218382571 25.707457838721893 223.9033369336565 25.707457838721893 C 224.4556216834873 25.707457838721893 224.9033369336565 26.1551730888911 224.9033369336565 26.707457838721893 Z" fill-opacity="1"/><path fill="none" stroke="rgb(0,0,0)" paint-order="fill stroke markers" d=" M 224.9033369336565 26.707457838721893 C 224.9033369336565 27.259742588552687 224.4556216834873 27.707457838721893 223.9033369336565 27.707457838721893 C 223.35105218382571 27.707457838721893 222.9033369336565 27.259742588552687 222.9033369336565 26.707457838721893 C 222.9033369336565 26.1551730888911 223.35105218382571 25.707457838721893 223.9033369336565 25.707457838721893 C 224.4556216834873 25.707457838721893 224.9033369336565 26.1551730888911 224.9033369336565 26.707457838721893 Z" stroke-opacity="1" stroke-linecap="round" stroke-linejoin="round" stroke-miterlimit="10"/><g transform="scale(19,19)"><g transform="translate(6.526315789473684,14.107350105263158)"><path fill="rgb(0,0,0)" stroke="none" paint-order="stroke fill markers" d=" M 0.334 -0.302 L 0.3 -0.165 Q 0.28300000000000003 -0.097 0.28300000000000003 -0.077 Q 0.28300000000000003 -0.025 0.32 -0.014 Q 0.328 -0.011 0.338 -0.011 Q 0.388 -0.011 0.429 -0.061 Q 0.456 -0.093 0.47100000000000003 -0.14200000000000002 Q 0.47400000000000003 -0.153 0.484 -0.153 Q 0.496 -0.153 0.496 -0.14300000000000002 Q 0.496 -0.11800000000000001 0.465 -0.07100000000000001 Q 0.41100000000000003 0.011 0.336 0.011 Q 0.268 0.011 0.23700000000000002 -0.046 Q 0.231 -0.055 0.228 -0.065 Q 0.20400000000000001 -0.017 0.162 0.002 Q 0.14300000000000002 0.011 0.123 0.011 Q 0.063 0.011 0.039 -0.024 Q 0.029 -0.037 0.029 -0.055 Q 0.029 -0.092 0.061 -0.107 Q 0.07200000000000001 -0.113 0.084 -0.113 Q 0.114 -0.113 0.12 -0.088 Q 0.121 -0.083 0.121 -0.078 Q 0.121 -0.044 0.08700000000000001 -0.028 Q 0.081 -0.025 0.074 -0.024 Q 0.095 -0.011 0.124 -0.011 Q 0.177 -0.011 0.20800000000000002 -0.082 Q 0.214 -0.097 0.219 -0.115 Q 0.273 -0.319 0.273 -0.353 Q 0.267 -0.41500000000000004 0.219 -0.42 Q 0.167 -0.42 0.124 -0.367 L 0.124 -0.366 Q 0.124 -0.365 0.123 -0.365 Q 0.108 -0.34500000000000003 0.096 -0.319 Q 0.091 -0.307 0.08700000000000001 -0.295 L 0.085 -0.289 Q 0.083 -0.278 0.07200000000000001 -0.278 Q 0.06 -0.278 0.06 -0.28800000000000003 Q 0.06 -0.313 0.092 -0.36 Q 0.146 -0.442 0.221 -0.442 Q 0.298 -0.442 0.329 -0.366 Q 0.361 -0.428 0.41400000000000003 -0.44 Q 0.424 -0.442 0.434 -0.442 Q 0.493 -0.442 0.517 -0.40900000000000003 Q 0.527 -0.395 0.527 -0.376 Q 0.527 -0.335 0.49 -0.321 Q 0.481 -0.318 0.47300000000000003 -0.318 Q 0.442 -0.318 0.436 -0.34500000000000003 Q 0.435 -0.34900000000000003 0.435 -0.353 Q 0.435 -0.383 0.464 -0.4 Q 0.47300000000000003 -0.405 0.483 -0.40700000000000003 Q 0.462 -0.42 0.433 -0.42 Q 0.365 -0.42 0.337 -0.314 Q 0.335 -0.308 0.334 -0.302 Z"/></g><g transform="translate(7.3205380116959065,14.107350105263158)"><path fill="rgb(0,0,0)" stroke="none" paint-order="stroke fill markers" d=" M 0.661 -0.23 L 0.116 -0.23 Q 0.084 -0.23 0.083 -0.25 Q 0.083 -0.27 0.116 -0.27 L 0.661 -0.27 Q 0.6930000000000001 -0.27 0.6940000000000001 -0.25 Q 0.6940000000000001 -0.23 0.661 -0.23 Z"/></g><g transform="translate(8.419182171385497,13.430842105263157)"><path fill="rgb(0,0,0)" stroke="none" paint-order="stroke fill markers" d=" M 0.23900000000000002 -0.683 L 0.165 -0.382 Q 0.223 -0.442 0.28200000000000003 -0.442 Q 0.357 -0.442 0.394 -0.373 Q 0.41500000000000004 -0.333 0.41500000000000004 -0.28200000000000003 Q 0.41500000000000004 -0.176 0.341 -0.084 Q 0.272 0.001 0.189 0.01 Q 0.181 0.011 0.17400000000000002 0.011 Q 0.10200000000000001 0.011 0.067 -0.056 Q 0.047 -0.094 0.047 -0.146 Q 0.047 -0.18 0.063 -0.247 L 0.145 -0.5730000000000001 Q 0.159 -0.632 0.159 -0.635 Q 0.159 -0.646 0.145 -0.649 L 0.145 -0.649 Q 0.133 -0.652 0.109 -0.652 Q 0.08700000000000001 -0.652 0.085 -0.664 Q 0.085 -0.681 0.10400000000000001 -0.684 L 0.226 -0.6940000000000001 Q 0.23900000000000002 -0.6940000000000001 0.23900000000000002 -0.683 M 0.145 -0.305 L 0.123 -0.213 Q 0.107 -0.15 0.107 -0.112 Q 0.107 -0.026000000000000002 0.159 -0.013000000000000001 Q 0.166 -0.011 0.17400000000000002 -0.011 Q 0.227 -0.011 0.273 -0.081 Q 0.28300000000000003 -0.096 0.292 -0.114 Q 0.319 -0.171 0.337 -0.268 Q 0.343 -0.303 0.343 -0.326 Q 0.343 -0.406 0.294 -0.418 L 0.293 -0.419 Q 0.28700000000000003 -0.42 0.28 -0.42 Q 0.22 -0.42 0.16 -0.34 Q 0.152 -0.33 0.145 -0.305 Z"/></g><rect fill="rgb(0,0,0)" stroke="none" x="8.383682171385496" y="13.837350605263156" width="0.5" height="0.039999"/><g transform="translate(8.383682171385496,14.793301105263156)"><path fill="rgb(0,0,0)" stroke="none" paint-order="stroke fill markers" d=" M 0.449 -0.17400000000000002 L 0.449 -0.17400000000000002 L 0.421 0 L 0.05 0 Q 0.05 -0.025 0.056 -0.032 L 0.061 -0.037 L 0.253 -0.251 Q 0.358 -0.369 0.358 -0.47200000000000003 Q 0.358 -0.561 0.304 -0.607 L 0.303 -0.608 L 0.302 -0.608 Q 0.27 -0.635 0.224 -0.635 Q 0.152 -0.635 0.109 -0.5730000000000001 Q 0.097 -0.555 0.089 -0.533 Q 0.092 -0.534 0.10200000000000001 -0.534 Q 0.14200000000000002 -0.534 0.153 -0.498 L 0.153 -0.497 Q 0.155 -0.49 0.155 -0.482 Q 0.155 -0.442 0.117 -0.431 Q 0.109 -0.429 0.10300000000000001 -0.429 Q 0.066 -0.429 0.054 -0.46 Q 0.05 -0.47100000000000003 0.05 -0.485 Q 0.05 -0.562 0.109 -0.617 Q 0.162 -0.666 0.23700000000000002 -0.666 Q 0.34700000000000003 -0.666 0.40800000000000003 -0.592 Q 0.443 -0.549 0.448 -0.49 Q 0.449 -0.481 0.449 -0.47200000000000003 Q 0.449 -0.399 0.394 -0.333 Q 0.365 -0.299 0.304 -0.243 L 0.243 -0.189 L 0.233 -0.18 L 0.127 -0.077 L 0.307 -0.077 Q 0.395 -0.077 0.402 -0.085 Q 0.41200000000000003 -0.099 0.424 -0.17400000000000002 L 0.449 -0.17400000000000002 Z"/></g></g><g transform="scale(25,25)"><g transform="translate(1.48,5.391)"><path fill="rgb(0,0,0)" stroke="none" paint-order="stroke fill markers" d=" M 0.334 -0.302 L 0.3 -0.165 Q 0.28300000000000003 -0.097 0.28300000000000003 -0.077 Q 0.28300000000000003 -0.025 0.32 -0.014 Q 0.328 -0.011 0.338 -0.011 Q 0.388 -0.011 0.429 -0.061 Q 0.456 -0.093 0.47100000000000003 -0.14200000000000002 Q 0.47400000000000003 -0.153 0.484 -0.153 Q 0.496 -0.153 0.496 -0.14300000000000002 Q 0.496 -0.11800000000000001 0.465 -0.07100000000000001 Q 0.41100000000000003 0.011 0.336 0.011 Q 0.268 0.011 0.23700000000000002 -0.046 Q 0.231 -0.055 0.228 -0.065 Q 0.20400000000000001 -0.017 0.162 0.002 Q 0.14300000000000002 0.011 0.123 0.011 Q 0.063 0.011 0.039 -0.024 Q 0.029 -0.037 0.029 -0.055 Q 0.029 -0.092 0.061 -0.107 Q 0.07200000000000001 -0.113 0.084 -0.113 Q 0.114 -0.113 0.12 -0.088 Q 0.121 -0.083 0.121 -0.078 Q 0.121 -0.044 0.08700000000000001 -0.028 Q 0.081 -0.025 0.074 -0.024 Q 0.095 -0.011 0.124 -0.011 Q 0.177 -0.011 0.20800000000000002 -0.082 Q 0.214 -0.097 0.219 -0.115 Q 0.273 -0.319 0.273 -0.353 Q 0.267 -0.41500000000000004 0.219 -0.42 Q 0.167 -0.42 0.124 -0.367 L 0.124 -0.366 Q 0.124 -0.365 0.123 -0.365 Q 0.108 -0.34500000000000003 0.096 -0.319 Q 0.091 -0.307 0.08700000000000001 -0.295 L 0.085 -0.289 Q 0.083 -0.278 0.07200000000000001 -0.278 Q 0.06 -0.278 0.06 -0.28800000000000003 Q 0.06 -0.313 0.092 -0.36 Q 0.146 -0.442 0.221 -0.442 Q 0.298 -0.442 0.329 -0.366 Q 0.361 -0.428 0.41400000000000003 -0.44 Q 0.424 -0.442 0.434 -0.442 Q 0.493 -0.442 0.517 -0.40900000000000003 Q 0.527 -0.395 0.527 -0.376 Q 0.527 -0.335 0.49 -0.321 Q 0.481 -0.318 0.47300000000000003 -0.318 Q 0.442 -0.318 0.436 -0.34500000000000003 Q 0.435 -0.34900000000000003 0.435 -0.353 Q 0.435 -0.383 0.464 -0.4 Q 0.47300000000000003 -0.405 0.483 -0.40700000000000003 Q 0.462 -0.42 0.433 -0.42 Q 0.365 -0.42 0.337 -0.314 Q 0.335 -0.308 0.334 -0.302 Z"/></g></g><g transform="scale(25,25)"><g transform="translate(15.64,5.671)"><path fill="rgb(0,0,0)" stroke="none" paint-order="stroke fill markers" d=" M 0.10205078125 -0.02880859375 Q 0.11865234375 -0.01513671875 0.14501953125 -0.01513671875 Q 0.17529296875 -0.01513671875 0.19580078125 -0.045166015625 Q 0.21630859375 -0.0751953125 0.22509765625 -0.11083984375 L 0.27001953125 -0.2900390625 Q 0.28076171875 -0.33203125 0.28076171875 -0.35693359375 Q 0.28076171875 -0.38134765625 0.26953125 -0.398681640625 Q 0.25830078125 -0.416015625 0.23583984375 -0.416015625 Q 0.20654296875 -0.416015625 0.18115234375 -0.3955078125 Q 0.15576171875 -0.375 0.13916015625 -0.344482421875 Q 0.12255859375 -0.31396484375 0.115234375 -0.2841796875 Q 0.1123046875 -0.27783203125 0.10693359375 -0.27783203125 L 0.0888671875 -0.27783203125 Q 0.0810546875 -0.27783203125 0.0810546875 -0.287109375 L 0.0810546875 -0.2900390625 Q 0.09033203125 -0.326171875 0.11279296875 -0.361572265625 Q 0.13525390625 -0.39697265625 0.16748046875 -0.41943359375 Q 0.19970703125 -0.44189453125 0.23681640625 -0.44189453125 Q 0.26904296875 -0.44189453125 0.295166015625 -0.4248046875 Q 0.3212890625 -0.40771484375 0.333984375 -0.3779296875 Q 0.3505859375 -0.40576171875 0.375244140625 -0.423828125 Q 0.39990234375 -0.44189453125 0.42822265625 -0.44189453125 Q 0.4453125 -0.44189453125 0.46044921875 -0.43798828125 Q 0.4755859375 -0.43408203125 0.48828125 -0.42578125 Q 0.5009765625 -0.41748046875 0.509033203125 -0.405029296875 Q 0.51708984375 -0.392578125 0.51708984375 -0.375 Q 0.51708984375 -0.3515625 0.502197265625 -0.334716796875 Q 0.4873046875 -0.31787109375 0.4638671875 -0.31787109375 Q 0.44970703125 -0.31787109375 0.439453125 -0.3271484375 Q 0.42919921875 -0.33642578125 0.42919921875 -0.35107421875 Q 0.42919921875 -0.369140625 0.44091796875 -0.38330078125 Q 0.45263671875 -0.3974609375 0.46923828125 -0.40185546875 Q 0.45361328125 -0.416015625 0.42578125 -0.416015625 Q 0.396484375 -0.416015625 0.37548828125 -0.385498046875 Q 0.3544921875 -0.35498046875 0.34619140625 -0.31982421875 L 0.30078125 -0.14111328125 Q 0.29736328125 -0.12451171875 0.293701171875 -0.106201171875 Q 0.2900390625 -0.087890625 0.2900390625 -0.07421875 Q 0.2900390625 -0.05029296875 0.3017578125 -0.03271484375 Q 0.3134765625 -0.01513671875 0.3359375 -0.01513671875 Q 0.36572265625 -0.01513671875 0.390869140625 -0.03564453125 Q 0.416015625 -0.05615234375 0.432373046875 -0.086181640625 Q 0.44873046875 -0.1162109375 0.4560546875 -0.14697265625 Q 0.4580078125 -0.15283203125 0.4638671875 -0.15283203125 L 0.48193359375 -0.15283203125 Q 0.48583984375 -0.15283203125 0.488525390625 -0.150390625 Q 0.4912109375 -0.14794921875 0.4912109375 -0.14404296875 Q 0.4912109375 -0.14306640625 0.490234375 -0.14111328125 Q 0.48095703125 -0.10400390625 0.458984375 -0.06884765625 Q 0.43701171875 -0.03369140625 0.404052734375 -0.01123046875 Q 0.37109375 0.01123046875 0.333984375 0.01123046875 Q 0.3017578125 0.01123046875 0.276123046875 -0.006103515625 Q 0.25048828125 -0.0234375 0.23779296875 -0.05322265625 Q 0.22119140625 -0.025390625 0.197265625 -0.007080078125 Q 0.17333984375 0.01123046875 0.14404296875 0.01123046875 Q 0.10986328125 0.01123046875 0.08251953125 -0.006103515625 Q 0.05517578125 -0.0234375 0.05517578125 -0.05615234375 Q 0.05517578125 -0.0791015625 0.070068359375 -0.095947265625 Q 0.0849609375 -0.11279296875 0.10693359375 -0.11279296875 Q 0.12255859375 -0.11279296875 0.1328125 -0.103759765625 Q 0.14306640625 -0.0947265625 0.14306640625 -0.080078125 Q 0.14306640625 -0.0625 0.13134765625 -0.04833984375 Q 0.11962890625 -0.0341796875 0.10205078125 -0.02880859375 Z"/></g></g><g transform="scale(19,19)"><g transform="translate(18.36157983220421,13.430842105263157)"><path fill="rgb(0,0,0)" stroke="none" paint-order="stroke fill markers" d=" M 0.23900000000000002 -0.683 L 0.165 -0.382 Q 0.223 -0.442 0.28200000000000003 -0.442 Q 0.357 -0.442 0.394 -0.373 Q 0.41500000000000004 -0.333 0.41500000000000004 -0.28200000000000003 Q 0.41500000000000004 -0.176 0.341 -0.084 Q 0.272 0.001 0.189 0.01 Q 0.181 0.011 0.17400000000000002 0.011 Q 0.10200000000000001 0.011 0.067 -0.056 Q 0.047 -0.094 0.047 -0.146 Q 0.047 -0.18 0.063 -0.247 L 0.145 -0.5730000000000001 Q 0.159 -0.632 0.159 -0.635 Q 0.159 -0.646 0.145 -0.649 L 0.145 -0.649 Q 0.133 -0.652 0.109 -0.652 Q 0.08700000000000001 -0.652 0.085 -0.664 Q 0.085 -0.681 0.10400000000000001 -0.684 L 0.226 -0.6940000000000001 Q 0.23900000000000002 -0.6940000000000001 0.23900000000000002 -0.683 M 0.145 -0.305 L 0.123 -0.213 Q 0.107 -0.15 0.107 -0.112 Q 0.107 -0.026000000000000002 0.159 -0.013000000000000001 Q 0.166 -0.011 0.17400000000000002 -0.011 Q 0.227 -0.011 0.273 -0.081 Q 0.28300000000000003 -0.096 0.292 -0.114 Q 0.319 -0.171 0.337 -0.268 Q 0.343 -0.303 0.343 -0.326 Q 0.343 -0.406 0.294 -0.418 L 0.293 -0.419 Q 0.28700000000000003 -0.42 0.28 -0.42 Q 0.22 -0.42 0.16 -0.34 Q 0.152 -0.33 0.145 -0.305 Z"/></g><rect fill="rgb(0,0,0)" stroke="none" x="18.32607983220421" y="13.837350605263156" width="0.5" height="0.039999"/><g transform="translate(18.32607983220421,14.793301105263156)"><path fill="rgb(0,0,0)" stroke="none" paint-order="stroke fill markers" d=" M 0.449 -0.17400000000000002 L 0.449 -0.17400000000000002 L 0.421 0 L 0.05 0 Q 0.05 -0.025 0.056 -0.032 L 0.061 -0.037 L 0.253 -0.251 Q 0.358 -0.369 0.358 -0.47200000000000003 Q 0.358 -0.561 0.304 -0.607 L 0.303 -0.608 L 0.302 -0.608 Q 0.27 -0.635 0.224 -0.635 Q 0.152 -0.635 0.109 -0.5730000000000001 Q 0.097 -0.555 0.089 -0.533 Q 0.092 -0.534 0.10200000000000001 -0.534 Q 0.14200000000000002 -0.534 0.153 -0.498 L 0.153 -0.497 Q 0.155 -0.49 0.155 -0.482 Q 0.155 -0.442 0.117 -0.431 Q 0.109 -0.429 0.10300000000000001 -0.429 Q 0.066 -0.429 0.054 -0.46 Q 0.05 -0.47100000000000003 0.05 -0.485 Q 0.05 -0.562 0.109 -0.617 Q 0.162 -0.666 0.23700000000000002 -0.666 Q 0.34700000000000003 -0.666 0.40800000000000003 -0.592 Q 0.443 -0.549 0.448 -0.49 Q 0.449 -0.481 0.449 -0.47200000000000003 Q 0.449 -0.399 0.394 -0.333 Q 0.365 -0.299 0.304 -0.243 L 0.243 -0.189 L 0.233 -0.18 L 0.127 -0.077 L 0.307 -0.077 Q 0.395 -0.077 0.402 -0.085 Q 0.41200000000000003 -0.099 0.424 -0.17400000000000002 L 0.449 -0.17400000000000002 Z"/></g></g><g transform="scale(19,19)"><g transform="translate(12.993158779572633,13.378210526315787)"><path fill="rgb(0,0,0)" stroke="none" paint-order="stroke fill markers" d=" M 0.23900000000000002 -0.683 L 0.165 -0.382 Q 0.223 -0.442 0.28200000000000003 -0.442 Q 0.357 -0.442 0.394 -0.373 Q 0.41500000000000004 -0.333 0.41500000000000004 -0.28200000000000003 Q 0.41500000000000004 -0.176 0.341 -0.084 Q 0.272 0.001 0.189 0.01 Q 0.181 0.011 0.17400000000000002 0.011 Q 0.10200000000000001 0.011 0.067 -0.056 Q 0.047 -0.094 0.047 -0.146 Q 0.047 -0.18 0.063 -0.247 L 0.145 -0.5730000000000001 Q 0.159 -0.632 0.159 -0.635 Q 0.159 -0.646 0.145 -0.649 L 0.145 -0.649 Q 0.133 -0.652 0.109 -0.652 Q 0.08700000000000001 -0.652 0.085 -0.664 Q 0.085 -0.681 0.10400000000000001 -0.684 L 0.226 -0.6940000000000001 Q 0.23900000000000002 -0.6940000000000001 0.23900000000000002 -0.683 M 0.145 -0.305 L 0.123 -0.213 Q 0.107 -0.15 0.107 -0.112 Q 0.107 -0.026000000000000002 0.159 -0.013000000000000001 Q 0.166 -0.011 0.17400000000000002 -0.011 Q 0.227 -0.011 0.273 -0.081 Q 0.28300000000000003 -0.096 0.292 -0.114 Q 0.319 -0.171 0.337 -0.268 Q 0.343 -0.303 0.343 -0.326 Q 0.343 -0.406 0.294 -0.418 L 0.293 -0.419 Q 0.28700000000000003 -0.42 0.28 -0.42 Q 0.22 -0.42 0.16 -0.34 Q 0.152 -0.33 0.145 -0.305 Z"/></g><rect fill="rgb(0,0,0)" stroke="none" x="12.957658779572633" y="13.784719026315786" width="0.5" height="0.039999"/><g transform="translate(12.957658779572633,14.740669526315786)"><path fill="rgb(0,0,0)" stroke="none" paint-order="stroke fill markers" d=" M 0.449 -0.17400000000000002 L 0.449 -0.17400000000000002 L 0.421 0 L 0.05 0 Q 0.05 -0.025 0.056 -0.032 L 0.061 -0.037 L 0.253 -0.251 Q 0.358 -0.369 0.358 -0.47200000000000003 Q 0.358 -0.561 0.304 -0.607 L 0.303 -0.608 L 0.302 -0.608 Q 0.27 -0.635 0.224 -0.635 Q 0.152 -0.635 0.109 -0.5730000000000001 Q 0.097 -0.555 0.089 -0.533 Q 0.092 -0.534 0.10200000000000001 -0.534 Q 0.14200000000000002 -0.534 0.153 -0.498 L 0.153 -0.497 Q 0.155 -0.49 0.155 -0.482 Q 0.155 -0.442 0.117 -0.431 Q 0.109 -0.429 0.10300000000000001 -0.429 Q 0.066 -0.429 0.054 -0.46 Q 0.05 -0.47100000000000003 0.05 -0.485 Q 0.05 -0.562 0.109 -0.617 Q 0.162 -0.666 0.23700000000000002 -0.666 Q 0.34700000000000003 -0.666 0.40800000000000003 -0.592 Q 0.443 -0.549 0.448 -0.49 Q 0.449 -0.481 0.449 -0.47200000000000003 Q 0.449 -0.399 0.394 -0.333 Q 0.365 -0.299 0.304 -0.243 L 0.243 -0.189 L 0.233 -0.18 L 0.127 -0.077 L 0.307 -0.077 Q 0.395 -0.077 0.402 -0.085 Q 0.41200000000000003 -0.099 0.424 -0.17400000000000002 L 0.449 -0.17400000000000002 Z"/></g></g></g></g></svg>