<?xml version="1.0" encoding="UTF-8"?>
<svg id="Layer_1" data-name="Layer 1" xmlns="http://www.w3.org/2000/svg" viewBox="0 0 1366 768">
  <defs>
    <style>
      .cls-1 {
        fill: #000;
      }

      .cls-1, .cls-2, .cls-3 {
        stroke-width: 0px;
      }

      .cls-2 {
        fill: #3cb371;
      }

      .cls-3 {
        fill: #2c2c2c;
      }

      .cls-4 {
        fill: #fff;
        font-family: SourceSansPro-Black, 'Source Sans Pro';
        font-size: 144px;
        font-weight: 800;
      }
    </style>
  </defs>
  <g id="background">
    <rect class="cls-3" x=".5" y=".5" width="1365" height="767"/>
    <path class="cls-1" d="M1365,1v766H1V1h1364M1366,0H0v768h1366V0h0Z"/>
  </g>
  <text class="cls-4" transform="translate(548 432)"><tspan x="0" y="0">Isaac No</tspan></text>
  <path class="cls-2" d="M173.4,550c-12.64,0-23.2-3.7-31.68-11.1s-12.72-16.65-12.72-27.75c0-8.32,2.31-15.03,6.94-20.12,4.62-5.09,10.64-7.63,18.04-7.63,6.47,0,11.79,1.85,15.96,5.55,4.16,3.7,6.24,8.63,6.24,14.8,0,3.39-.69,6.55-2.08,9.48s-3.31,5.32-5.78,7.17c1.23.62,2.54,1.08,3.93,1.39s2.85.46,4.39.46c4.01,0,7.4-1.93,10.18-5.78,2.78-3.85,4.78-8.86,6.01-15.03l31.91-164.19h-44.4c-4.01,0-7.32-1.31-9.94-3.93s-3.93-5.94-3.93-9.94,1.31-7.32,3.93-9.94c2.62-2.62,5.94-3.93,9.94-3.93h49.49l9.71-49.02c2.78-13.88,8.33-24.59,16.65-32.14s18.65-11.33,30.99-11.33,23.05,3.7,31.22,11.1c8.05,7.29,12.54,18.11,12.24,28.97-.22,7.76-2.52,14.07-6.92,18.9-4.62,5.09-10.64,7.63-18.04,7.63-6.17,0-11.41-1.77-15.73-5.32s-6.47-8.25-6.47-14.11c0-3.08.62-6.09,1.85-9.02,1.23-2.93,2.78-5.32,4.62-7.17-.62-.62-1.54-1.16-2.77-1.62s-2.47-.69-3.7-.69c-4.01,0-7.48,1.85-10.41,5.55-2.93,3.7-5.01,8.48-6.24,14.34l-8.32,43.94h73.54c4.01,0,7.32,1.31,9.94,3.93,2.62,2.62,3.93,5.94,3.93,9.94s-1.31,7.32-3.93,9.94-5.94,3.93-9.94,3.93h-7.86l38.39,44.4,36.07-44.4h-8.32c-4.01,0-7.32-1.31-9.94-3.93-2.62-2.62-3.93-5.94-3.93-9.94s1.31-7.32,3.93-9.94,5.94-3.93,9.94-3.93h58.28c4.01,0,7.32,1.31,9.94,3.93s3.93,5.94,3.93,9.94-1.31,7.32-3.93,9.94c-2.62,2.62-5.94,3.93-9.94,3.93h-12.95l-55.5,65.21,55.5,64.29h12.95c4.01,0,7.32,1.31,9.94,3.93s3.93,5.94,3.93,9.94-1.31,7.32-3.93,9.94c-2.62,2.62-5.94,3.93-9.94,3.93h-58.28c-4.01,0-7.32-1.31-9.94-3.93-2.62-2.62-3.93-5.94-3.93-9.94s1.31-7.32,3.93-9.94,5.94-3.93,9.94-3.93h8.32l-37-43.01-37.92,43.01h8.32c4.01,0,7.32,1.31,9.94,3.93,2.62,2.62,3.93,5.94,3.93,9.94s-1.31,7.32-3.93,9.94-5.94,3.93-9.94,3.93h-58.28c-4.01,0-7.32-1.31-9.94-3.93-2.62-2.62-3.93-5.94-3.93-9.94s1.31-7.32,3.93-9.94,5.94-3.93,9.94-3.93h13.41l55.96-64.29-55.96-65.21h-34.23l-32.84,169.28c-2.47,13.88-7.71,24.59-15.73,32.14-8.02,7.55-18.35,11.33-30.99,11.33Z"/>
</svg>